<svg width="47" height="48" viewBox="0 0 47 48" fill="none" xmlns="http://www.w3.org/2000/svg">
<rect width="47" height="48" rx="13" fill="#FF5781"/>
<path d="M34.0929 15H11.9082C10.856 15 10 15.856 10 16.9082V30.6811C10 31.7333 10.856 32.5893 11.9082 32.5893H34.0928C35.1451 32.5893 36.001 31.7333 36.001 30.6811V16.9082C36.0011 15.856 35.1451 15 34.0929 15ZM17.9982 26.4526H20.5757C20.8849 26.4526 21.1356 26.7033 21.1356 27.0125C21.1356 27.3217 20.8849 27.5724 20.5757 27.5724H17.9982C17.6889 27.5724 17.4383 27.3217 17.4383 27.0125C17.4383 26.7033 17.6889 26.4526 17.9982 26.4526ZM12.4213 20.8366C12.4213 20.5274 12.672 20.2767 12.9812 20.2767H16.3354C16.6446 20.2767 16.8953 20.5274 16.8953 20.8366V23.2617C16.8953 23.571 16.6446 23.8216 16.3354 23.8216H12.9812C12.672 23.8216 12.4213 23.5709 12.4213 23.2617V20.8366ZM12.9812 26.4526H15.5587C15.868 26.4526 16.1186 26.7033 16.1186 27.0125C16.1186 27.3217 15.868 27.5724 15.5587 27.5724H12.9812C12.672 27.5724 12.4213 27.3217 12.4213 27.0125C12.4213 26.7033 12.6721 26.4526 12.9812 26.4526ZM22.1829 30.0621H12.9812C12.672 30.0621 12.4213 29.8115 12.4213 29.5022C12.4213 29.193 12.672 28.9424 12.9812 28.9424H22.1829C22.4922 28.9424 22.7428 29.193 22.7428 29.5022C22.7428 29.8115 22.4922 30.0621 22.1829 30.0621ZM25.5926 27.5724H23.0151C22.7058 27.5724 22.4552 27.3217 22.4552 27.0125C22.4552 26.7033 22.7059 26.4526 23.0151 26.4526H25.5926C25.9019 26.4526 26.1525 26.7033 26.1525 27.0125C26.1525 27.3217 25.9019 27.5724 25.5926 27.5724ZM30.6095 27.5724H28.032C27.7228 27.5724 27.4722 27.3217 27.4722 27.0125C27.4722 26.7033 27.7228 26.4526 28.032 26.4526H30.6095C30.9188 26.4526 31.1694 26.7033 31.1694 27.0125C31.1694 27.3217 30.9187 27.5724 30.6095 27.5724ZM33.0198 19.3934H26.9406C26.6313 19.3934 26.3807 19.1428 26.3807 18.8335C26.3807 18.5243 26.6314 18.2736 26.9406 18.2736H33.0198C33.3291 18.2736 33.5797 18.5243 33.5797 18.8335C33.5797 19.1428 33.329 19.3934 33.0198 19.3934Z" fill="white"/>
</svg>
