<svg width="179" height="172" viewBox="0 0 179 172" fill="none" xmlns="http://www.w3.org/2000/svg">
<g filter="url(#filter0_d_326_633)">
<path d="M9.5984 162.922L4 142.606H7.74488L11.2628 156.042L14.7807 142.606H17.5421L21.0978 156.042L24.6536 142.606H28.3984L22.8379 162.922H19.7739L16.2181 149.648L12.6246 162.922H9.5984ZM34.6021 163.165C33.2403 163.165 32.0677 162.882 31.0463 162.275C30.025 161.668 29.2306 160.818 28.6632 159.725C28.0958 158.632 27.7932 157.337 27.7932 155.84C27.7932 154.383 28.058 153.088 28.5876 151.914C29.1172 150.741 29.8737 149.81 30.8572 149.162C31.8407 148.474 33.0134 148.15 34.413 148.15C35.8126 148.15 36.9474 148.474 37.893 149.081C38.8387 149.688 39.5196 150.579 40.0114 151.671C40.5031 152.764 40.7301 154.059 40.7301 155.516V156.609H31.6137C31.6137 157.337 31.7272 157.985 31.9542 158.551C32.1812 159.118 32.5216 159.523 32.9377 159.806C33.3538 160.089 33.8834 160.251 34.4886 160.251C35.1317 160.251 35.7369 160.089 36.2286 159.806C36.7204 159.523 37.0608 158.997 37.25 158.349H40.6922C40.5409 159.361 40.1627 160.251 39.5574 160.98C38.9522 161.708 38.1957 162.275 37.3256 162.639C36.4556 163.003 35.5099 163.205 34.6021 163.165ZM31.5759 154.14H37.1365C37.1365 153.574 37.023 153.007 36.8339 152.521C36.6069 152.036 36.3043 151.671 35.926 151.388C35.5478 151.105 35.0182 150.983 34.3751 150.983C33.7699 150.983 33.2781 151.145 32.862 151.429C32.4459 151.712 32.1055 152.117 31.9164 152.602C31.6894 153.088 31.5759 153.614 31.5759 154.14ZM47.0472 163.165C46.0259 163.165 45.2693 163.044 44.6641 162.801C44.0589 162.558 43.6427 162.194 43.378 161.789C43.1132 161.384 42.924 160.899 42.8484 160.413C42.7727 159.887 42.7349 159.401 42.7349 158.875V141.999H46.4798V158.309C46.4798 158.835 46.5933 159.28 46.7824 159.604C47.0094 159.927 47.3876 160.13 47.9929 160.211L48.6359 160.251V162.801C48.3711 162.882 48.1063 162.963 47.8416 163.044C47.5768 163.124 47.312 163.165 47.0472 163.165ZM55.6718 163.205C54.4235 163.205 53.2887 162.922 52.3051 162.315C51.3216 161.708 50.5273 160.858 49.9599 159.725C49.3925 158.592 49.1277 157.256 49.1277 155.718C49.1277 154.221 49.3925 152.886 49.9599 151.752C50.4895 150.619 51.246 149.729 52.2673 149.081C53.2508 148.434 54.3856 148.11 55.7096 148.11C56.8444 148.11 57.8279 148.353 58.6601 148.838C59.4923 149.324 60.1353 150.012 60.6271 150.862C61.1189 151.712 61.3836 152.643 61.4593 153.695H58.2818C58.2062 153.331 58.0927 152.926 57.9036 152.562C57.7144 152.198 57.4496 151.874 57.1092 151.631C56.7687 151.388 56.3148 151.267 55.7852 151.267C54.8774 151.267 54.1587 151.631 53.5913 152.359C53.0239 153.088 52.7591 154.221 52.7591 155.718C52.7591 157.135 53.0239 158.268 53.5913 159.077C54.1208 159.927 54.8774 160.332 55.8609 160.332C56.3905 160.332 56.8066 160.211 57.147 159.927C57.4875 159.644 57.7522 159.32 57.9414 158.956C58.1305 158.592 58.244 158.228 58.3196 157.904H61.4215C61.3458 158.916 61.081 159.806 60.6271 160.615C60.1353 161.425 59.4923 162.072 58.6601 162.558C57.7523 162.963 56.7687 163.205 55.6718 163.205ZM69.2895 163.205C67.9655 163.205 66.7929 162.922 65.8094 162.275C64.8259 161.668 64.0694 160.818 63.5398 159.685C63.0102 158.551 62.7454 157.256 62.7454 155.718C62.7454 154.181 63.0102 152.845 63.5398 151.712C64.0694 150.579 64.8259 149.688 65.8094 149.041C66.7929 148.393 67.9655 148.07 69.2895 148.07C70.6134 148.07 71.7861 148.393 72.7696 149C73.7531 149.607 74.5096 150.498 75.0392 151.631C75.5688 152.764 75.8336 154.14 75.8336 155.678C75.8336 157.135 75.5688 158.43 75.0392 159.523C74.5096 160.656 73.7531 161.506 72.8074 162.153C71.8617 162.882 70.6513 163.205 69.2895 163.205ZM69.2895 160.13C69.9704 160.13 70.5 159.927 70.9161 159.482C71.3322 159.077 71.6348 158.511 71.7861 157.823C71.9752 157.135 72.0509 156.366 72.0509 155.557C72.0509 154.788 71.9752 154.059 71.7861 153.371C71.5969 152.683 71.3322 152.117 70.9161 151.712C70.5 151.307 69.9326 151.064 69.2138 151.064C68.533 151.064 68.0034 151.267 67.5873 151.671C67.1712 152.076 66.8686 152.602 66.6794 153.29C66.4903 153.978 66.3768 154.707 66.3768 155.557C66.3768 156.325 66.4525 157.054 66.6416 157.742C66.8307 158.43 67.0955 159.037 67.5116 159.442C68.0034 159.927 68.5708 160.17 69.2895 160.13ZM77.6871 162.922V148.393H81.432V150.457C81.8481 149.81 82.4155 149.284 83.0964 148.798C83.7773 148.353 84.6851 148.11 85.7443 148.11C86.1982 148.11 86.6899 148.191 87.1439 148.393C87.6356 148.596 88.0895 148.838 88.5056 149.162C88.9217 149.486 89.2622 149.931 89.527 150.457C89.9809 149.769 90.5483 149.243 91.267 148.798C91.9857 148.353 92.7801 148.15 93.6501 148.15C94.1797 148.15 94.6714 148.231 95.201 148.434C95.7306 148.636 96.1845 148.919 96.6385 149.324C97.0924 149.729 97.4328 150.255 97.6976 150.943C97.9624 151.631 98.1137 152.44 98.1137 153.412V163.003H94.2932V153.938C94.2932 153.371 94.1797 152.886 93.9906 152.521C93.8014 152.157 93.4988 151.914 93.1584 151.752C92.8179 151.59 92.4775 151.51 92.0992 151.51C91.7588 151.51 91.4183 151.59 91.0779 151.712C90.7374 151.874 90.4348 152.076 90.17 152.4C89.9052 152.724 89.7918 153.128 89.7918 153.654V162.963H85.9712V153.533C85.9712 153.088 85.8577 152.724 85.6308 152.4C85.4038 152.117 85.139 151.874 84.7986 151.712C84.4581 151.55 84.1177 151.469 83.7773 151.469C83.4368 151.469 83.0964 151.55 82.7181 151.712C82.3398 151.874 82.075 152.117 81.8481 152.44C81.6211 152.764 81.5076 153.169 81.5076 153.654V162.963L77.6871 162.922ZM106.663 163.165C105.301 163.165 104.128 162.882 103.107 162.275C102.086 161.668 101.291 160.818 100.724 159.725C100.156 158.632 99.8538 157.337 99.8538 155.84C99.8538 154.383 100.119 153.088 100.648 151.914C101.178 150.741 101.934 149.81 102.918 149.162C103.901 148.474 105.074 148.15 106.473 148.15C107.873 148.15 109.008 148.474 109.954 149.081C110.899 149.688 111.58 150.579 112.072 151.671C112.564 152.764 112.791 154.059 112.791 155.516V156.609H103.674C103.674 157.337 103.788 157.985 104.015 158.551C104.242 159.118 104.582 159.523 104.998 159.806C105.414 160.089 105.944 160.251 106.549 160.251C107.192 160.251 107.797 160.089 108.289 159.806C108.781 159.523 109.121 158.997 109.311 158.349H112.753C112.601 159.361 112.223 160.251 111.618 160.98C111.013 161.708 110.256 162.275 109.386 162.639C108.516 163.003 107.608 163.205 106.663 163.165ZM103.674 154.14H109.235C109.235 153.574 109.121 153.007 108.932 152.521C108.705 152.036 108.403 151.671 108.024 151.388C107.646 151.105 107.117 150.983 106.473 150.983C105.868 150.983 105.377 151.145 104.96 151.429C104.544 151.712 104.204 152.117 104.015 152.602C103.75 153.088 103.674 153.614 103.674 154.14ZM128.148 163.165C126.371 163.165 124.857 162.72 123.571 161.829C122.285 160.939 121.302 159.725 120.583 158.106C119.864 156.528 119.524 154.666 119.524 152.521C119.524 150.376 119.864 148.555 120.583 147.017C121.264 145.479 122.285 144.306 123.571 143.496C124.857 142.687 126.371 142.242 128.148 142.242C129.586 142.242 130.834 142.525 131.969 143.173C133.104 143.78 133.974 144.63 134.692 145.682C135.373 146.734 135.789 147.948 135.903 149.284H131.893C131.78 148.596 131.553 147.948 131.212 147.422C130.91 146.855 130.456 146.451 129.926 146.127C129.397 145.803 128.754 145.641 128.035 145.641C127.165 145.641 126.371 145.884 125.765 146.329C125.122 146.775 124.63 147.543 124.29 148.555C123.95 149.567 123.76 150.943 123.76 152.602C123.76 155.111 124.139 156.973 124.895 158.066C125.652 159.199 126.673 159.765 128.035 159.765C128.791 159.765 129.397 159.563 129.926 159.239C130.456 158.916 130.872 158.389 131.212 157.823C131.515 157.216 131.742 156.568 131.893 155.88H135.903C135.789 156.852 135.562 157.782 135.26 158.632C134.919 159.523 134.465 160.292 133.86 160.98C133.255 161.668 132.499 162.194 131.553 162.598C130.607 163.003 129.472 163.205 128.148 163.165ZM141.69 163.165C140.82 163.165 140.064 163.003 139.345 162.639C138.664 162.315 138.097 161.789 137.681 161.141C137.265 160.494 137.076 159.685 137.076 158.754C137.076 157.175 137.643 155.961 138.74 155.111C139.837 154.261 141.615 153.857 143.998 153.816L145.7 153.776V152.926C145.7 152.238 145.511 151.752 145.171 151.388C144.792 151.024 144.225 150.862 143.468 150.862C142.901 150.862 142.371 151.024 141.88 151.267C141.388 151.55 141.01 151.995 140.82 152.683H137.643C137.681 151.631 137.983 150.781 138.513 150.093C139.043 149.405 139.723 148.919 140.631 148.555C141.501 148.231 142.523 148.07 143.657 148.07C145.057 148.07 146.154 148.272 146.986 148.636C147.818 149 148.424 149.526 148.802 150.214C149.18 150.902 149.369 151.712 149.369 152.683V162.882H146.154L145.851 160.372C145.398 161.425 144.792 162.153 144.111 162.558C143.468 163.003 142.636 163.205 141.69 163.165ZM142.977 160.494C143.317 160.494 143.657 160.413 143.998 160.292C144.338 160.17 144.641 159.968 144.868 159.725C145.133 159.482 145.322 159.239 145.511 158.956C145.662 158.673 145.738 158.349 145.738 158.066V155.921L144.376 155.961C143.733 155.961 143.128 156.042 142.598 156.204C142.031 156.366 141.615 156.609 141.274 156.973C140.934 157.337 140.783 157.782 140.783 158.389C140.783 159.077 141.01 159.604 141.426 159.968C141.804 160.292 142.334 160.494 142.977 160.494ZM151.715 162.922V148.393H155.422V151.833C155.649 151.105 155.951 150.457 156.367 149.891C156.746 149.324 157.237 148.879 157.805 148.596C158.372 148.272 159.015 148.11 159.734 148.11C159.847 148.11 159.961 148.11 160.074 148.11C160.188 148.11 160.264 148.15 160.339 148.191V152.117C160.264 152.076 160.15 152.036 160.074 152.036C159.961 152.036 159.847 151.995 159.772 151.995C159.015 151.914 158.372 151.955 157.843 152.076C157.313 152.198 156.859 152.359 156.557 152.643C156.216 152.926 155.989 153.25 155.838 153.654C155.686 154.059 155.611 154.504 155.611 154.99V162.963L151.715 162.922ZM166.883 163.165C165.068 163.165 163.63 162.477 162.647 161.141C161.625 159.806 161.134 157.904 161.134 155.516C161.134 154.019 161.361 152.683 161.739 151.59C162.155 150.457 162.76 149.607 163.555 149C164.349 148.393 165.332 148.07 166.505 148.07C166.997 148.07 167.451 148.11 167.867 148.231C168.283 148.353 168.661 148.515 169.039 148.717C169.38 148.919 169.682 149.162 169.947 149.446C170.212 149.729 170.439 150.012 170.59 150.295V141.999H174.449V162.882H171.65L171.233 159.887C171.12 160.292 170.931 160.696 170.704 161.06C170.477 161.465 170.212 161.789 169.872 162.113C169.531 162.436 169.115 162.679 168.623 162.882C168.132 163.084 167.564 163.165 166.883 163.165ZM167.753 160.251C168.699 160.251 169.456 159.887 169.909 159.158C170.401 158.43 170.628 157.216 170.628 155.516C170.628 154.504 170.515 153.695 170.326 153.047C170.099 152.4 169.796 151.914 169.38 151.59C168.964 151.267 168.434 151.105 167.791 151.105C166.959 151.105 166.278 151.429 165.711 152.117C165.143 152.805 164.878 153.938 164.878 155.516C164.878 157.135 165.143 158.349 165.673 159.118C166.165 159.846 166.845 160.251 167.753 160.251Z" fill="#F1F1F1"/>
<path fill-rule="evenodd" clip-rule="evenodd" d="M59.2873 7.31787C59.2069 7.31787 59.1264 7.31787 59.0459 7.31787C58.7241 7.31787 58.3218 7.40395 58 7.57612L40.6207 14.2905C40.7011 14.2905 40.7011 14.2905 40.7816 14.2044C40.862 14.2044 41.023 14.1183 41.1034 14.1183C41.2643 14.1183 41.3448 14.0323 41.4253 14.0323C41.5057 14.0323 41.6666 14.0323 41.7471 14.0323C42.0689 14.0323 42.3103 14.0323 42.6322 14.1183C43.4368 14.2905 44 14.6348 44.4827 15.1513C44.8046 15.4956 44.9655 15.84 45.1264 16.2704C45.2069 16.5286 45.2873 16.7008 45.3678 16.959C45.5287 17.5616 45.5287 18.3363 45.5287 19.1111C45.5287 19.2832 45.5287 19.4554 45.5287 19.6276V19.7137C45.5287 19.8858 45.5287 20.058 45.4483 20.3162C45.3678 20.8327 45.2873 21.3492 45.2069 21.9518C45.1264 22.2961 45.046 22.6404 44.9655 22.9848C44.885 23.3291 44.8046 23.7595 44.7241 24.1038C44.6437 24.4482 44.5632 24.7925 44.4827 25.1368C44.3218 25.6533 44.2414 26.2559 44.0804 26.8584C44 27.2028 43.9195 27.6332 43.7586 28.0636C43.5172 28.9244 43.3563 29.7852 43.1149 30.7321C42.7126 32.3677 42.2299 34.1754 41.7471 36.0692C41.1034 38.6517 40.4597 41.4063 39.8965 44.4192C38.7701 50.2727 37.8046 56.8149 37.4827 64.1319C36.8391 78.5076 41.1034 110.444 53.8965 114.92C55.3448 115.437 56.6322 115.351 57.8391 114.834C58 114.748 58.0804 114.662 58.2414 114.662C58.7241 114.404 59.2069 114.059 59.6092 113.715C59.7701 113.629 59.931 113.457 60.0115 113.285C60.3333 113.026 60.5747 112.682 60.8161 112.338C60.977 112.166 61.0574 111.993 61.2184 111.821C61.6207 111.305 62.023 110.702 62.3448 110.1C62.5057 109.927 62.5862 109.669 62.6666 109.497C62.908 109.067 63.1494 108.55 63.3103 108.12C63.5517 107.603 63.7126 107.173 63.954 106.656C64.1149 106.14 64.3563 105.623 64.5172 105.107C64.6781 104.59 64.9195 103.988 65.0804 103.471C57.0345 92.9693 54.2988 69.2968 54.7816 57.5036C55.1034 50.1866 56.0689 43.5583 57.1954 37.7908C57.2758 37.2744 57.4368 36.7579 57.5172 36.2414C59.5287 26.6002 61.9425 19.2832 62.5862 14.3766C63.1494 10.589 62.5862 8.26477 59.931 7.57612C59.8505 7.40395 59.6092 7.40395 59.2873 7.31787Z" fill="url(#paint0_linear_326_633)"/>
<path fill-rule="evenodd" clip-rule="evenodd" d="M74.9769 1.03364L74.6551 1.11972L62.7471 5.76814C62.908 5.76814 63.1494 5.85422 63.3103 5.85422C65.9654 6.54287 66.5287 8.781 65.9654 12.6547C65.2413 17.8196 62.5861 25.653 60.5746 36.069C60.4942 36.5854 60.3333 37.1019 60.2528 37.6184C59.2068 43.0416 58.4022 49.1534 58.1609 55.7817C57.6781 66.628 59.931 87.2877 66.5287 98.8226C66.6091 98.5644 66.6896 98.22 66.77 97.9618C66.931 97.4453 67.0114 96.9288 67.1723 96.3262C67.5746 94.5185 67.8965 92.6247 68.2183 90.9031C68.4597 89.6979 68.6206 88.4928 68.7815 87.3737C68.9425 86.4268 69.0229 85.566 69.1034 84.7052C69.1838 84.2748 69.1838 83.9305 69.2643 83.5C69.5861 81.0037 69.8275 78.8516 69.908 77.2161C69.908 76.9578 69.9884 76.6996 69.9884 76.5274C70.0689 76.097 70.0689 75.7527 70.0689 75.4084C70.0689 75.3223 70.0689 75.2362 70.0689 75.1501C70.0689 74.9779 70.0689 74.8058 70.1494 74.7197C70.1494 74.5475 70.2298 74.2893 70.2298 74.031C70.2298 73.945 70.2298 73.7728 70.2298 73.6867C70.4712 71.5347 70.6321 68.3496 71.2758 65.8533C71.3563 65.595 71.3563 65.4229 71.4367 65.1646C71.5172 64.9925 71.5172 64.8203 71.5976 64.562C71.7586 64.1316 71.839 63.7873 71.9999 63.5291C72.0804 63.3569 72.2413 63.0986 72.3218 62.9265C72.4022 62.8404 72.4827 62.7543 72.4827 62.6682C72.5631 62.5822 72.6436 62.4961 72.6436 62.4961C72.8045 62.3239 72.9654 62.2378 73.0459 62.1518C72.885 60.344 72.7241 58.7085 72.6436 57.0729C72.4827 54.7487 72.4827 52.6827 72.5631 50.9611C72.885 43.8163 73.8505 37.4463 74.9769 31.8509C77.3907 20.4881 80.6091 12.3104 80.931 7.14545C81.0919 4.13258 80.2873 2.06662 77.6321 1.11972C77.0689 0.947554 76.5861 0.775391 76.0229 0.775391C75.7815 0.775391 75.3792 0.861472 74.9769 1.03364Z" fill="url(#paint1_linear_326_633)"/>
<path fill-rule="evenodd" clip-rule="evenodd" d="M30 40.5453L41.908 36.069C45.046 23.0707 47.9425 15.4955 42.7931 14.2042C42.4713 14.1182 42.2299 14.1182 41.908 14.1182C34.1839 14.1182 30 40.5453 30 40.5453Z" fill="url(#paint2_linear_326_633)"/>
<path d="M57.9983 114.833L57.9196 114.917C57.9196 114.917 57.9196 114.833 57.9983 114.833Z" fill="#0054B6"/>
<path fill-rule="evenodd" clip-rule="evenodd" d="M73.931 61.9795C73.6896 61.9795 73.4482 62.0656 73.2068 62.1517C73.0459 62.2377 72.885 62.3238 72.8045 62.496C72.7241 62.5821 72.6436 62.6681 72.6436 62.6681C72.5632 62.7542 72.4827 62.8403 72.4827 62.9264C72.3218 63.0986 72.2413 63.2707 72.1609 63.529C72 63.8733 71.839 64.2176 71.7586 64.5619C71.6781 64.7341 71.5977 64.9063 71.5977 65.1645C71.5172 65.4228 71.4367 65.5949 71.4367 65.8532C70.8735 68.3496 70.6321 71.5346 70.3908 73.6866C70.3908 73.8588 70.3908 73.9449 70.3908 74.031C70.3908 74.2892 70.3103 74.4614 70.3103 74.7196C70.3103 74.8057 70.3103 74.9779 70.2298 75.15C70.2298 75.2361 70.2298 75.3222 70.2298 75.4083C70.2298 75.7526 70.1494 76.0969 70.1494 76.5273C70.1494 76.7856 70.1494 76.9577 70.0689 77.216C69.908 78.7655 69.6666 81.0036 69.4252 83.5C69.3448 83.9304 69.3448 84.2747 69.2643 84.7051C69.1839 85.5659 69.0229 86.4267 68.9425 87.3736C68.7816 88.4927 68.6206 89.6979 68.3793 90.903C68.0574 92.7107 67.7356 94.5184 67.3333 96.3262C67.2528 96.8426 67.0919 97.4452 66.931 97.9617C66.8505 98.22 66.7701 98.5643 66.6896 98.8225C66.6896 98.9086 66.6091 98.9947 66.6091 99.0808C66.4482 99.5973 66.3678 100.114 66.2068 100.63V100.716C66.2068 100.802 66.2068 100.802 66.2068 100.888C66.1264 101.233 66.0459 101.577 65.9655 101.835C65.885 102.094 65.8046 102.352 65.7241 102.61C65.6436 102.954 65.5632 103.213 65.4827 103.471C65.3218 104.074 65.1609 104.59 64.9195 105.107C64.7586 105.623 64.5172 106.139 64.3563 106.656C64.1149 107.172 63.954 107.689 63.7126 108.119C63.4712 108.636 63.2298 109.066 63.0689 109.497C62.9885 109.755 62.8275 109.927 62.7471 110.099C62.4252 110.702 62.0229 111.304 61.6206 111.821C61.4597 111.993 61.3793 112.165 61.2183 112.337C60.977 112.682 60.6551 112.94 60.4137 113.284C60.2528 113.456 60.0919 113.543 60.0114 113.715C59.5287 114.145 59.1264 114.403 58.6436 114.662C58.4827 114.748 58.4023 114.834 58.2413 114.834L75.2988 108.205L75.4597 108.119L77.0689 107.517C77.0689 107.345 76.9885 107.259 76.9885 107.086C76.9885 107 76.908 106.914 76.908 106.828C76.8275 106.57 76.7471 106.226 76.7471 105.967C76.5862 105.193 76.5057 104.418 76.3448 103.643C76.2643 103.385 76.2643 103.127 76.1839 102.868C76.0229 101.835 75.862 100.716 75.7816 99.6833C75.6206 98.1339 75.4597 96.6705 75.3793 95.121C75.3793 94.5184 75.2988 93.8298 75.2183 93.2272C74.816 86.1685 74.977 79.6263 75.0574 76.3552C75.0574 76.0108 75.0574 75.6665 75.0574 75.4083C75.0574 75.3222 75.0574 75.15 75.0574 75.0639C75.0574 74.6335 75.0574 74.2031 75.1379 73.6866C75.1379 73.4284 75.1379 73.1701 75.1379 72.9119C75.1379 72.4815 75.2183 72.1372 75.2183 71.7067C75.2183 71.3624 75.2988 71.1042 75.2988 70.7598C75.3793 69.9851 75.3793 69.2965 75.4597 68.6078C75.7011 65.5949 75.7816 63.1846 74.8965 62.3238C74.816 62.2377 74.816 62.2377 74.7356 62.2377C74.5747 62.1517 74.4137 62.0656 74.1724 62.0656C74.0114 61.9795 73.931 61.9795 73.931 61.9795Z" fill="url(#paint3_linear_326_633)"/>
<path fill-rule="evenodd" clip-rule="evenodd" d="M97.6667 52.6826C97.5057 52.6826 97.3448 52.6826 97.2644 52.7687L97.023 52.8548L88.4138 56.212C88.5747 56.212 88.7356 56.212 88.8965 56.212C90.6667 56.4702 90.4253 59.7413 90.023 64.0454C89.8621 65.681 89.7816 67.4026 89.7011 69.2103C89.6207 75.3221 88.1724 109.669 99.0345 115.35C98.8736 115.522 98.7126 115.781 98.6322 115.953C98.4713 116.211 98.2299 116.469 98.069 116.641C97.908 116.814 97.8276 116.986 97.6667 117.158C85.0345 114.145 86.6437 76.7855 86.7241 70.4155C86.7241 68.6078 86.8851 66.8861 87.046 65.2506C87.3678 61.2908 87.6896 58.1919 86.3218 57.5032C86.2414 57.4171 86.0805 57.4171 85.9195 57.4171C85.7586 57.4171 85.5977 57.4171 85.5172 57.4171L79.5632 59.7413L73.2874 62.2377C73.5287 62.0655 73.8506 62.0655 74.1724 62.0655C74.2529 62.0655 74.3333 62.0655 74.4942 62.1516C74.5747 62.1516 74.6552 62.2377 74.7356 62.3238C74.8161 62.3238 74.8161 62.4099 74.8965 62.4099C74.977 62.4959 75.0575 62.582 75.0575 62.6681C75.1379 62.7542 75.1379 62.8403 75.2184 62.9264C75.2988 63.0124 75.2988 63.0985 75.3793 63.2707C75.4598 63.3568 75.4598 63.5289 75.4598 63.615C75.4598 63.7011 75.5402 63.7872 75.5402 63.8733C75.5402 63.9593 75.5402 64.0454 75.6207 64.1315C75.7011 64.648 75.7011 65.2506 75.7011 65.9392C75.7011 66.1114 75.7011 66.2835 75.7011 66.3696C75.7011 66.8861 75.6207 67.4887 75.6207 68.0913C75.6207 68.3495 75.6207 68.5217 75.5402 68.7799C75.5402 69.0382 75.4598 69.2103 75.4598 69.4686C75.4598 69.5547 75.4598 69.6407 75.4598 69.7268C75.4598 69.8129 75.4598 69.899 75.4598 69.9851C75.3793 70.5876 75.3793 71.1902 75.2988 71.7928C75.2988 72.2232 75.2184 72.5675 75.2184 72.9979C75.2184 73.6866 75.1379 74.3752 75.1379 75.15C75.1379 75.3221 75.1379 75.5804 75.1379 75.8386V75.9247C75.1379 76.0969 75.1379 76.269 75.1379 76.4412C75.1379 76.5273 75.1379 76.6995 75.1379 76.7855C75.1379 76.9577 75.1379 77.0438 75.1379 77.216C75.1379 77.3881 75.1379 77.5603 75.1379 77.7324C75.1379 77.9907 75.1379 78.2489 75.1379 78.5072C75.1379 78.7654 75.1379 79.0237 75.1379 79.2819C75.1379 79.5402 75.1379 79.8845 75.1379 80.1427C75.1379 80.401 75.1379 80.7453 75.1379 81.0896C75.1379 81.434 75.1379 81.7783 75.1379 82.1226C75.1379 83.1556 75.1379 84.2747 75.1379 85.3937C75.1379 85.7381 75.1379 85.9963 75.1379 86.3406C75.1379 86.4267 75.1379 86.5128 75.1379 86.685C75.1379 87.5458 75.1379 88.4066 75.2184 89.2674C75.2184 89.5257 75.2184 89.6978 75.2184 89.9561C75.2184 90.2143 75.2184 90.4726 75.2184 90.7308C75.2988 91.5916 75.2988 92.5385 75.3793 93.3993C75.4598 94.0019 75.4598 94.6906 75.5402 95.2931C75.6207 96.8426 75.7816 98.306 75.9425 99.8555C76.023 100.372 76.1034 100.975 76.1034 101.491V101.577C76.1839 102.094 76.2644 102.61 76.3448 103.127C76.4253 103.385 76.4253 103.643 76.5057 103.901C76.6667 104.676 76.7471 105.451 76.908 106.226C76.908 106.484 76.9885 106.656 77.069 106.914C77.069 107 77.069 107.086 77.1494 107.172C77.1494 107.259 77.1494 107.345 77.2299 107.431C77.2299 107.603 77.3103 107.689 77.3103 107.861C78.9195 115.35 81.7356 121.29 86.6437 122.237C88.5747 122.581 90.3448 122.409 91.954 121.892L92.9195 121.548L111.747 114.231C112.793 113.284 113.839 112.165 114.724 110.874C110.701 109.669 107.805 106.57 105.632 102.266C101.529 93.9158 100.644 80.9175 101.529 68.4356C101.529 68.2634 101.529 68.0052 101.609 67.833C101.851 64.648 101.851 62.0655 101.77 60.0857C101.448 55.0929 100.08 53.3713 98.3103 53.113C97.8276 52.7687 97.7471 52.7687 97.6667 52.6826Z" fill="url(#paint4_linear_326_633)"/>
<path fill-rule="evenodd" clip-rule="evenodd" d="M128.322 52.9405L125.828 53.8874L115.046 58.0193L114.644 58.1915C112.632 59.1384 111.345 63.2703 110.379 68.4352C110.218 69.3821 110.058 70.4151 109.897 71.4481C108.69 79.3676 108.127 88.7505 107.161 94.0876C106.759 96.2396 106.115 98.9943 105.23 101.921C105.23 102.007 105.23 102.007 105.15 102.093C103.782 106.569 101.77 111.562 99.0346 115.35C98.8737 115.522 98.7127 115.78 98.6323 115.952C98.4714 116.211 98.23 116.469 98.0691 116.727C97.9081 116.899 97.8277 117.071 97.6668 117.244C96.138 118.965 94.4484 120.429 92.5173 121.289L111.345 113.972C112.391 113.026 113.437 111.907 114.322 110.615C118.989 104.245 121.563 94.6041 122.609 89.0948C123.253 85.3933 123.816 79.5398 124.46 73.6862L125.747 73.1697L126.632 72.8254L127.92 72.3089C127.195 78.3346 126.713 84.2743 126.069 88.1479C125.023 94.0876 122.046 104.762 116.736 111.046C116.333 111.562 115.931 111.993 115.529 112.423L119.874 110.701L121.081 110.185C130.736 105.623 136.207 84.5325 137.172 76.5269C137.494 74.1166 137.575 71.362 137.736 68.5213L136.046 69.2099L135.402 69.4682L134.517 69.8125L133.31 70.329C133.31 70.2429 133.391 69.6403 133.471 68.6934C133.552 66.6275 133.713 63.012 133.31 59.827C133.23 59.1384 133.069 58.5358 132.989 57.8471C132.828 56.9863 132.506 56.1255 132.184 55.4368C131.54 54.1456 130.655 53.1987 129.448 53.0265H129.368C129.287 53.0265 129.207 53.0265 129.127 53.0265C128.644 52.8544 128.483 52.9405 128.322 52.9405Z" fill="url(#paint5_linear_326_633)"/>
<path fill-rule="evenodd" clip-rule="evenodd" d="M142.724 47.5176C142.483 47.5176 142.322 47.5176 142.08 47.6037L141.437 47.8619L131.701 51.6495C131.943 51.5634 132.264 51.5634 132.506 51.5634C134.92 51.8217 135.966 54.9206 136.448 58.3639C137.092 63.0984 136.529 68.5216 136.529 68.8659L137.655 68.4355L149 64.0453C149 63.8731 148.92 58.5361 147.713 53.9737C146.908 50.7026 145.46 47.8619 143.126 47.6037C142.966 47.5176 142.805 47.5176 142.724 47.5176Z" fill="url(#paint6_linear_326_633)"/>
<path fill-rule="evenodd" clip-rule="evenodd" d="M132.667 57.6749C132.506 56.8141 132.184 55.9533 131.862 55.2646L132.667 57.6749Z" fill="url(#paint7_linear_326_633)"/>
<path fill-rule="evenodd" clip-rule="evenodd" d="M128.322 52.9412L125.828 53.8881L115.046 58.02C115.287 57.934 115.609 57.934 115.851 57.934C118.264 58.1922 119.31 61.2911 119.793 64.7344C120.437 69.555 119.874 75.1503 119.874 75.2364L124.379 73.5148L125.667 72.9983L126.552 72.6539L127.839 72.1375L133.149 70.0715C133.149 69.9854 133.23 69.3828 133.31 68.4359C133.471 66.37 133.552 62.7545 133.149 59.5695C132.667 56.1262 131.621 53.1134 129.287 52.769H129.207C129.126 52.769 129.046 52.769 128.966 52.769C128.724 52.8551 128.483 52.9412 128.322 52.9412Z" fill="url(#paint8_linear_326_633)"/>
</g>
<defs>
<filter id="filter0_d_326_633" x="0" y="0.775391" width="178.449" height="170.43" filterUnits="userSpaceOnUse" color-interpolation-filters="sRGB">
<feFlood flood-opacity="0" result="BackgroundImageFix"/>
<feColorMatrix in="SourceAlpha" type="matrix" values="0 0 0 0 0 0 0 0 0 0 0 0 0 0 0 0 0 0 127 0" result="hardAlpha"/>
<feOffset dy="4"/>
<feGaussianBlur stdDeviation="2"/>
<feComposite in2="hardAlpha" operator="out"/>
<feColorMatrix type="matrix" values="0 0 0 0 0 0 0 0 0 0 0 0 0 0 0 0 0 0 0.25 0"/>
<feBlend mode="normal" in2="BackgroundImageFix" result="effect1_dropShadow_326_633"/>
<feBlend mode="normal" in="SourceGraphic" in2="effect1_dropShadow_326_633" result="shape"/>
</filter>
<linearGradient id="paint0_linear_326_633" x1="47.413" y1="-15.0572" x2="55.6434" y2="123.625" gradientUnits="userSpaceOnUse">
<stop stop-color="#743DB9"/>
<stop offset="0.3412" stop-color="#2599B9"/>
<stop offset="0.702" stop-color="#5DE3C6"/>
<stop offset="0.9882" stop-color="#B4FFF2"/>
<stop offset="1" stop-color="#B4FFF2"/>
</linearGradient>
<linearGradient id="paint1_linear_326_633" x1="67.0961" y1="-16.352" x2="75.2601" y2="122.72" gradientUnits="userSpaceOnUse">
<stop stop-color="#743DB9"/>
<stop offset="0.3412" stop-color="#2599B9"/>
<stop offset="0.702" stop-color="#5DE3C6"/>
<stop offset="0.9882" stop-color="#B4FFF2"/>
<stop offset="1" stop-color="#B4FFF2"/>
</linearGradient>
<linearGradient id="paint2_linear_326_633" x1="43.2516" y1="12.3401" x2="33.2223" y2="41.6828" gradientUnits="userSpaceOnUse">
<stop stop-color="#0E339E"/>
<stop offset="1" stop-color="#3C64BA"/>
</linearGradient>
<linearGradient id="paint3_linear_326_633" x1="67.4597" y1="62.4942" x2="67.4597" y2="120.38" gradientUnits="userSpaceOnUse">
<stop stop-color="#FF85FF"/>
<stop offset="0.4902" stop-color="#9400B6"/>
<stop offset="1" stop-color="#5900A1"/>
</linearGradient>
<linearGradient id="paint4_linear_326_633" x1="90.4933" y1="41.417" x2="98.2387" y2="137.714" gradientUnits="userSpaceOnUse">
<stop stop-color="#FF85FF"/>
<stop offset="0.4902" stop-color="#9400B6"/>
<stop offset="1" stop-color="#5900A1"/>
</linearGradient>
<linearGradient id="paint5_linear_326_633" x1="123.231" y1="62.8346" x2="104.014" y2="135.708" gradientUnits="userSpaceOnUse">
<stop stop-color="#662D80"/>
<stop offset="0.4902" stop-color="#C10080"/>
<stop offset="1" stop-color="#FF5781"/>
</linearGradient>
<linearGradient id="paint6_linear_326_633" x1="138.951" y1="35.6738" x2="144.661" y2="116.053" gradientUnits="userSpaceOnUse">
<stop stop-color="#FFCD86"/>
<stop offset="0.5216" stop-color="#FF4E9D"/>
<stop offset="1" stop-color="#8B00B6"/>
</linearGradient>
<linearGradient id="paint7_linear_326_633" x1="132.148" y1="53.8566" x2="132.821" y2="63.3349" gradientUnits="userSpaceOnUse">
<stop stop-color="#FF6600"/>
<stop offset="1" stop-color="#FFD600"/>
</linearGradient>
<linearGradient id="paint8_linear_326_633" x1="122.75" y1="36.8155" x2="128.377" y2="117.196" gradientUnits="userSpaceOnUse">
<stop stop-color="#FFCD86"/>
<stop offset="0.5216" stop-color="#FF4E9D"/>
<stop offset="1" stop-color="#8B00B6"/>
</linearGradient>
</defs>
</svg>
