<svg width="47" height="48" viewBox="0 0 47 48" fill="none" xmlns="http://www.w3.org/2000/svg">
<rect width="47" height="48" rx="13" fill="#0F349F"/>
<g clip-path="url(#clip0_494_293)">
<path d="M23 13C20.8244 13 18.6977 13.6451 16.8887 14.8538C15.0798 16.0625 13.6699 17.7805 12.8373 19.7905C12.0048 21.8005 11.7869 24.0122 12.2114 26.146C12.6358 28.2798 13.6835 30.2398 15.2218 31.7782C16.7602 33.3166 18.7202 34.3642 20.854 34.7886C22.9878 35.2131 25.1995 34.9952 27.2095 34.1627C29.2195 33.3301 30.9375 31.9202 32.1462 30.1113C33.3549 28.3023 34 26.1756 34 24C34 21.0826 32.8411 18.2847 30.7782 16.2218C28.7153 14.1589 25.9174 13 23 13ZM27.0266 20.0472C27.3058 20.0469 27.5789 20.1295 27.8111 20.2845C28.0434 20.4394 28.2245 20.6598 28.3315 20.9177C28.4385 21.1756 28.4666 21.4595 28.4122 21.7334C28.3578 22.0072 28.2233 22.2588 28.0259 22.4563C27.8284 22.6537 27.5769 22.7881 27.303 22.8426C27.0291 22.897 26.7452 22.8689 26.4873 22.7619C26.2294 22.6549 26.009 22.4738 25.8541 22.2415C25.6991 22.0092 25.6166 21.7362 25.6168 21.457C25.6168 21.0831 25.7654 20.7245 26.0297 20.4601C26.2941 20.1958 26.6527 20.0472 27.0266 20.0472ZM18.9734 20.0472C19.2527 20.0469 19.5257 20.1295 19.758 20.2845C19.9903 20.4394 20.1714 20.6598 20.2784 20.9177C20.3854 21.1756 20.4134 21.4595 20.359 21.7334C20.3046 22.0072 20.1702 22.2588 19.9727 22.4563C19.7753 22.6537 19.5237 22.7881 19.2498 22.8426C18.9759 22.897 18.6921 22.8689 18.4342 22.7619C18.1762 22.6549 17.9559 22.4738 17.8009 22.2415C17.646 22.0092 17.5634 21.7362 17.5637 21.457C17.5641 21.0832 17.7127 20.7249 17.977 20.4606C18.2413 20.1963 18.5997 20.0476 18.9734 20.0472ZM29.1947 26.805C28.733 29.4407 26.135 31.2687 23 31.2687C19.865 31.2687 17.2684 29.4407 16.8067 26.805C16.8017 26.7782 16.7988 26.7511 16.798 26.7239C16.798 26.3433 17.2612 26.0972 17.6665 26.2362C19.2296 26.7761 21.0533 27.0511 23.0015 27.0511C24.9496 27.0511 26.7733 26.7761 28.3365 26.2362C28.7403 26.0914 29.2049 26.3418 29.2049 26.7239C29.2036 26.7512 29.2002 26.7783 29.1947 26.805Z" fill="white"/>
</g>
<defs>
<clipPath id="clip0_494_293">
<rect width="22" height="22" fill="white" transform="translate(12 13)"/>
</clipPath>
</defs>
</svg>
