<?xml version="1.0" encoding="utf-8"?>
<!-- Generator: Adobe Illustrator 26.0.1, SVG Export Plug-In . SVG Version: 6.00 Build 0)  -->
<svg version="1.1" id="Layer_1" xmlns="http://www.w3.org/2000/svg" xmlns:xlink="http://www.w3.org/1999/xlink" x="0px" y="0px"
	 viewBox="0 0 47 48" style="enable-background:new 0 0 47 48;" xml:space="preserve">
<style type="text/css">
	.st0{fill:#C10080;}
	.st1{fill:#FFFFFF;}
</style>
<path class="st0" d="M13,0h21c7.2,0,13,5.8,13,13v22c0,7.2-5.8,13-13,13H13C5.8,48,0,42.2,0,35V13C0,5.8,5.8,0,13,0z"/>
<g>
	<path class="st1" d="M39.3,25c-0.1,0.6-0.1,1.2-0.2,1.7c-0.9,4.7-3.4,8.3-7.5,10.8c-2.5,1.5-5.3,2.3-8.2,2.2
		c-3.8-0.1-7.1-1.4-10-3.8c-0.3-0.3-0.7-0.6-1-0.9c-1,1-1.9,2-3,3.1c0-2.6,0-5.2,0-7.8c2.6,0,5.2,0,7.8,0c-0.9,0.9-1.8,1.7-2.6,2.5
		c2.6,2.8,7.1,4.6,12,3.4c5.3-1.3,9.6-6.3,9.6-12.2c1,0,2.1,0,3.1,0C39.3,24.3,39.3,24.7,39.3,25z"/>
	<path class="st1" d="M24.5,8.2c0.6,0.1,1.1,0.1,1.7,0.2c3.1,0.6,5.8,2,8.1,4.1c0.1,0.1,0.3,0.2,0.4,0.4c1-1,2-2,3-3.1
		c0,2.6,0,5.2,0,7.8c-2.6,0-5.2,0-7.8,0c0.9-0.9,1.8-1.7,2.6-2.5c-3.1-3.2-8-4.7-12.7-3.2c-4.9,1.5-8.8,6.2-8.9,12c-1,0-2.1,0-3.2,0
		c0-0.5,0-1.1,0.1-1.6c0.4-3.9,2.1-7.2,4.9-9.9c2.5-2.3,5.5-3.7,8.9-4.1c0.3,0,0.6-0.1,0.9-0.1C23.2,8.2,23.8,8.2,24.5,8.2z"/>
	<path class="st1" d="M18.8,27.2c1,0,2,0,3.1,0c0,0.1,0,0.2,0.1,0.3c0.2,0.8,1,1.4,1.7,1.3c0.8-0.1,1.5-0.9,1.4-1.6
		c0-0.8-0.7-1.5-1.5-1.5c-1.8-0.1-3.2-0.8-4.1-2.4c-1.4-2.5-0.4-5.6,2.3-6.7c0.2-0.1,0.2-0.2,0.2-0.4c0-0.5,0-0.9,0-1.4
		c0-0.2,0.1-0.3,0.2-0.2c0.9,0,1.8,0,2.7,0c0.2,0,0.2,0.1,0.2,0.3c0,0.5,0,0.9,0,1.4c0,0.2,0.1,0.3,0.3,0.4c1.8,0.8,2.7,2.1,2.9,4.1
		c0,0.1,0,0.1,0,0.2c0,0,0,0,0,0.1c-1,0-2.1,0-3,0c-0.1-0.3-0.2-0.6-0.4-0.9c-0.4-0.6-1.2-0.9-1.9-0.6c-0.7,0.3-1,1-0.9,1.7
		c0.1,0.7,0.8,1.3,1.5,1.3c0.9,0,1.7,0.2,2.4,0.6c1.7,1,2.4,2.5,2.3,4.4c-0.1,1.9-1.1,3.3-2.9,4c-0.2,0.1-0.3,0.2-0.3,0.4
		c0,0.5,0,0.9,0,1.4c0,0.2-0.1,0.2-0.2,0.2c-0.9,0-1.8,0-2.7,0c-0.2,0-0.2-0.1-0.2-0.2c0-0.5,0-0.9,0-1.4c0-0.2-0.1-0.3-0.3-0.4
		c-1.8-0.8-2.7-2.1-2.9-4.1C18.8,27.3,18.8,27.3,18.8,27.2C18.8,27.2,18.8,27.2,18.8,27.2z"/>
</g>
</svg>
