<?xml version="1.0" encoding="utf-8"?>
<!-- Generator: Adobe Illustrator 26.0.1, SVG Export Plug-In . SVG Version: 6.00 Build 0)  -->
<svg version="1.1" id="Layer_1" xmlns="http://www.w3.org/2000/svg" xmlns:xlink="http://www.w3.org/1999/xlink" x="0px" y="0px"
	 viewBox="0 0 47 48" style="enable-background:new 0 0 47 48;" xml:space="preserve">
<style type="text/css">
	.st0{fill:#5A00A1;}
	.st1{fill:#FFFFFF;}
</style>
<path class="st0" d="M13,0h21c7.2,0,13,5.8,13,13v22c0,7.2-5.8,13-13,13H13C5.8,48,0,42.2,0,35V13C0,5.8,5.8,0,13,0z"/>
<g>
	<path class="st1" d="M7.4,29.1c0.7-0.7,1.4-1.4,2.1-2.1c0.1-0.1,0.4-0.2,0.6-0.2c1.6,0,3.2,0,4.8,0c0.2,0,0.3-0.1,0.5-0.2
		c1.7-1.7,3.5-3.5,5.2-5.2c0.1-0.1,0.2-0.2,0.3-0.3c-0.2-0.1-0.3-0.1-0.4-0.2c-3.9-1.6-7.7-3.2-11.6-4.8c-0.1,0-0.1,0-0.2-0.1
		c-0.5-0.2-0.6-0.7-0.2-1.1c0.6-0.6,1.2-1.2,1.8-1.8c0.2-0.2,0.5-0.2,0.7-0.2c3.5,0.6,7,1.1,10.5,1.7c1.6,0.3,3.2,0.5,4.8,0.7
		c0.1,0,0.3-0.1,0.4-0.2c2-2,4.1-4.1,6.1-6.1c1.2-1.2,2.5-1.5,4.1-1c2.6,0.8,3.6,4.1,1.7,6.2c-0.5,0.5-1,1-1.5,1.5
		c-1.6,1.6-3.3,3.3-4.9,4.9c-0.2,0.2-0.2,0.3-0.2,0.6c0.5,3,0.9,5.9,1.4,8.9c0.3,2.1,0.6,4.1,1,6.2c0,0.3,0,0.6-0.2,0.8
		c-0.6,0.5-1.1,1.1-1.6,1.6c-0.5,0.5-1,0.4-1.2-0.2c-1.6-3.9-3.2-7.7-4.8-11.6c-0.1-0.1-0.1-0.2-0.2-0.4c-0.1,0.1-0.2,0.2-0.3,0.2
		c-1.8,1.8-3.6,3.5-5.3,5.3c-0.1,0.1-0.1,0.3-0.1,0.4c0,1.6,0,3.2,0,4.8c0,0.3-0.1,0.6-0.3,0.8c-0.5,0.5-1,1-1.5,1.5
		c-0.2,0.2-0.4,0.3-0.6,0.4c-0.1,0-0.1,0-0.2,0c-0.3-0.1-0.5-0.4-0.6-0.7c-0.7-2.3-1.4-4.6-2-7c-0.1-0.2-0.2-0.3-0.4-0.4
		c-2.3-0.7-4.7-1.4-7-2.1c-0.3-0.1-0.5-0.2-0.7-0.5C7.4,29.3,7.4,29.2,7.4,29.1z"/>
</g>
</svg>
