<svg width="234" height="54" viewBox="0 0 234 54" fill="none" xmlns="http://www.w3.org/2000/svg">
<g clip-path="url(#clip0_326_729)">
<path fill-rule="evenodd" clip-rule="evenodd" d="M13.7691 2.87485C13.7313 2.87485 13.6934 2.87485 13.6556 2.87485C13.5043 2.87485 13.3152 2.91267 13.1638 2.98833L4.9932 5.93884C5.03103 5.93884 5.03103 5.93884 5.06886 5.90101C5.10669 5.90101 5.18234 5.86318 5.22017 5.86318C5.29582 5.86318 5.33365 5.82536 5.37148 5.82536C5.4093 5.82536 5.48496 5.82536 5.52278 5.82536C5.67409 5.82536 5.78757 5.82536 5.93888 5.86318C6.31715 5.93884 6.58194 6.09015 6.8089 6.31711C6.96021 6.46842 7.03587 6.61973 7.11152 6.80886C7.14935 6.92234 7.18717 6.998 7.225 7.11148C7.30065 7.37627 7.30065 7.71671 7.30065 8.05715C7.30065 8.13281 7.30065 8.20846 7.30065 8.28412V8.32194C7.30065 8.3976 7.30066 8.47325 7.26283 8.58673C7.225 8.81369 7.18717 9.04066 7.14935 9.30545C7.11152 9.45675 7.07369 9.60806 7.03587 9.75937C6.99804 9.91068 6.96021 10.0998 6.92238 10.2511C6.88456 10.4024 6.84673 10.5537 6.8089 10.705C6.73325 10.932 6.69542 11.1968 6.61977 11.4616C6.58194 11.6129 6.54411 11.802 6.46846 11.9912C6.35498 12.3694 6.27932 12.7477 6.16584 13.1638C5.97671 13.8825 5.74975 14.6769 5.52278 15.5091C5.22017 16.6439 4.91755 17.8544 4.65276 19.1783C4.12318 21.7505 3.66926 24.6254 3.51795 27.8407C3.21533 34.1578 5.22017 48.1917 11.2347 50.1587C11.9156 50.3856 12.5208 50.3478 13.0882 50.1208C13.1638 50.083 13.2017 50.0452 13.2773 50.0452C13.5043 49.9317 13.7313 49.7804 13.9204 49.6291C13.996 49.5913 14.0717 49.5156 14.1095 49.4399C14.2608 49.3265 14.3743 49.1752 14.4878 49.0239C14.5634 48.9482 14.6013 48.8725 14.6769 48.7969C14.8661 48.5699 15.0552 48.3051 15.2065 48.0404C15.2822 47.9647 15.32 47.8512 15.3578 47.7756C15.4713 47.5864 15.5848 47.3595 15.6604 47.1703C15.7739 46.9434 15.8496 46.7542 15.963 46.5273C16.0387 46.3003 16.1522 46.0733 16.2278 45.8464C16.3035 45.6194 16.417 45.3546 16.4926 45.1277C12.7099 40.5128 11.4238 30.1103 11.6508 24.928C11.8021 21.7127 12.256 18.8 12.7856 16.2656C12.8234 16.0387 12.8991 15.8117 12.9369 15.5847C13.8826 11.3481 15.0174 8.13281 15.32 5.97667C15.5848 4.31228 15.32 3.29095 14.0717 2.98833C14.0339 2.91267 13.9204 2.91267 13.7691 2.87485Z" fill="url(#paint0_linear_326_729)"/>
<path fill-rule="evenodd" clip-rule="evenodd" d="M21.1454 0.113481L20.994 0.151308L15.3956 2.19397C15.4713 2.19397 15.5848 2.2318 15.6604 2.2318C16.9087 2.53441 17.1735 3.51792 16.9087 5.22013C16.5683 7.48976 15.32 10.932 14.3743 15.5091C14.3365 15.7361 14.2608 15.963 14.223 16.19C13.7313 18.5731 13.353 21.2588 13.2395 24.1715C13.0125 28.9377 14.0717 38.0162 17.1735 43.085C17.2113 42.9715 17.2492 42.8202 17.287 42.7067C17.3626 42.4798 17.4005 42.2528 17.4761 41.988C17.6653 41.1937 17.8166 40.3615 17.9679 39.6049C18.0814 39.0753 18.157 38.5458 18.2327 38.054C18.3083 37.6379 18.3462 37.2596 18.384 36.8814C18.4218 36.6922 18.4218 36.5409 18.4596 36.3518C18.6109 35.2548 18.7244 34.3091 18.7622 33.5904C18.7622 33.4769 18.8001 33.3635 18.8001 33.2878C18.8379 33.0987 18.8379 32.9474 18.8379 32.7961C18.8379 32.7582 18.8379 32.7204 18.8379 32.6826C18.8379 32.6069 18.8379 32.5313 18.8757 32.4934C18.8757 32.4178 18.9136 32.3043 18.9136 32.1908C18.9136 32.153 18.9136 32.0773 18.9136 32.0395C19.027 31.0938 19.1027 29.6942 19.4053 28.5973C19.4431 28.4838 19.4431 28.4081 19.481 28.2946C19.5188 28.219 19.5188 28.1433 19.5566 28.0298C19.6323 27.8407 19.6701 27.6894 19.7458 27.5759C19.7836 27.5003 19.8592 27.3868 19.8971 27.3111C19.9349 27.2733 19.9727 27.2355 19.9727 27.1977C20.0105 27.1598 20.0484 27.122 20.0484 27.122C20.124 27.0463 20.1997 27.0085 20.2375 26.9707C20.1619 26.1763 20.0862 25.4576 20.0484 24.7389C19.9727 23.7176 19.9727 22.8097 20.0105 22.0532C20.1619 18.9135 20.6158 16.1143 21.1454 13.6556C22.2802 8.66239 23.7932 5.06883 23.9446 2.7992C24.0202 1.47526 23.6419 0.567406 22.3936 0.151308C22.1289 0.0756541 21.9019 0 21.6371 0C21.5236 0 21.3345 0.0378271 21.1454 0.113481Z" fill="url(#paint1_linear_326_729)"/>
<path fill-rule="evenodd" clip-rule="evenodd" d="M0 17.4761L5.5984 15.5091C7.07366 9.7972 8.43543 6.46842 6.0145 5.90102C5.86319 5.86319 5.74971 5.86319 5.5984 5.86319C1.96701 5.86319 0 17.4761 0 17.4761Z" fill="url(#paint2_linear_326_729)"/>
<path d="M13.163 50.1208L13.126 50.1579C13.126 50.1579 13.126 50.1208 13.163 50.1208Z" fill="#0054B6"/>
<path fill-rule="evenodd" clip-rule="evenodd" d="M20.6536 26.8951C20.5401 26.8951 20.4267 26.9329 20.3132 26.9707C20.2375 27.0085 20.1619 27.0464 20.124 27.122C20.0862 27.1598 20.0484 27.1977 20.0484 27.1977C20.0106 27.2355 19.9727 27.2733 19.9727 27.3111C19.8971 27.3868 19.8593 27.4625 19.8214 27.5759C19.7458 27.7272 19.6701 27.8786 19.6323 28.0299C19.5945 28.1055 19.5566 28.1812 19.5566 28.2947C19.5188 28.4081 19.481 28.4838 19.481 28.5973C19.2162 29.6943 19.1027 31.0939 18.9892 32.0395C18.9892 32.1152 18.9892 32.153 18.9892 32.1908C18.9892 32.3043 18.9514 32.38 18.9514 32.4935C18.9514 32.5313 18.9514 32.6069 18.9136 32.6826C18.9136 32.7204 18.9136 32.7582 18.9136 32.7961C18.9136 32.9474 18.8757 33.0987 18.8757 33.2878C18.8757 33.4013 18.8757 33.477 18.8379 33.5904C18.7623 34.2713 18.6488 35.2548 18.5353 36.3518C18.4975 36.5409 18.4975 36.6923 18.4597 36.8814C18.4218 37.2597 18.3462 37.6379 18.3083 38.054C18.2327 38.5458 18.157 39.0754 18.0436 39.6049C17.8922 40.3993 17.7409 41.1937 17.5518 41.988C17.514 42.215 17.4383 42.4798 17.3627 42.7068C17.3248 42.8202 17.287 42.9715 17.2492 43.085C17.2492 43.1229 17.2114 43.1607 17.2114 43.1985C17.1357 43.4255 17.0979 43.6524 17.0222 43.8794V43.9172C17.0222 43.9551 17.0222 43.9551 17.0222 43.9929C16.9844 44.1442 16.9466 44.2955 16.9087 44.409C16.8709 44.5225 16.8331 44.6359 16.7953 44.7494C16.7574 44.9007 16.7196 45.0142 16.6818 45.1277C16.6061 45.3925 16.5305 45.6194 16.417 45.8464C16.3413 46.0734 16.2279 46.3003 16.1522 46.5273C16.0387 46.7543 15.9631 46.9812 15.8496 47.1704C15.7361 47.3973 15.6226 47.5865 15.547 47.7756C15.5091 47.8891 15.4335 47.9647 15.3957 48.0404C15.2444 48.3052 15.0552 48.57 14.8661 48.7969C14.7904 48.8726 14.7526 48.9482 14.6769 49.0239C14.5635 49.1752 14.4122 49.2887 14.2987 49.44C14.223 49.5156 14.1474 49.5535 14.1095 49.6291C13.8826 49.8182 13.6934 49.9317 13.4665 50.0452C13.3908 50.083 13.353 50.1209 13.2773 50.1209L21.2967 47.2082L21.3723 47.1704L22.1289 46.9056C22.1289 46.8299 22.091 46.7921 22.091 46.7164C22.091 46.6786 22.0532 46.6408 22.0532 46.6029C22.0154 46.4895 21.9776 46.3382 21.9776 46.2247C21.9019 45.8842 21.8641 45.5438 21.7884 45.2033C21.7506 45.0899 21.7506 44.9764 21.7128 44.8629C21.6371 44.409 21.5615 43.9172 21.5236 43.4633C21.448 42.7824 21.3723 42.1394 21.3345 41.4585C21.3345 41.1937 21.2967 40.8911 21.2589 40.6263C21.0697 37.5245 21.1454 34.6496 21.1832 33.2122C21.1832 33.0609 21.1832 32.9096 21.1832 32.7961C21.1832 32.7582 21.1832 32.6826 21.1832 32.6448C21.1832 32.4556 21.1832 32.2665 21.221 32.0395C21.221 31.926 21.221 31.8126 21.221 31.6991C21.221 31.51 21.2589 31.3586 21.2589 31.1695C21.2589 31.0182 21.2967 30.9047 21.2967 30.7534C21.3345 30.413 21.3345 30.1104 21.3723 29.8077C21.4858 28.4838 21.5236 27.4246 21.1075 27.0464C21.0697 27.0085 21.0697 27.0085 21.0319 27.0085C20.9562 26.9707 20.8806 26.9329 20.7671 26.9329C20.6914 26.895 20.6536 26.8951 20.6536 26.8951Z" fill="url(#paint3_linear_326_729)"/>
<path fill-rule="evenodd" clip-rule="evenodd" d="M31.8125 22.8097C31.7369 22.8097 31.6612 22.8097 31.6234 22.8475L31.5099 22.8853L27.4624 24.3606C27.5381 24.3606 27.6137 24.3606 27.6894 24.3606C28.5216 24.4741 28.4081 25.9115 28.219 27.8029C28.1433 28.5216 28.1055 29.2781 28.0677 30.0725C28.0298 32.7582 27.349 47.8512 32.4556 50.3478C32.38 50.4234 32.3043 50.5369 32.2665 50.6126C32.1908 50.7261 32.0773 50.8395 32.0017 50.9152C31.926 50.9909 31.8882 51.0665 31.8125 51.1422C25.8737 49.8182 26.6302 33.4013 26.6681 30.6021C26.6681 29.8077 26.7437 29.0512 26.8194 28.3324C26.9707 26.5924 27.122 25.2306 26.4789 24.928C26.4411 24.8902 26.3655 24.8902 26.2898 24.8902C26.2141 24.8902 26.1385 24.8902 26.1007 24.8902L23.3015 25.9115L20.351 27.0085C20.4644 26.9328 20.6157 26.9328 20.7671 26.9328C20.8049 26.9328 20.8427 26.9328 20.9184 26.9707C20.9562 26.9707 20.994 27.0085 21.0318 27.0463C21.0697 27.0463 21.0697 27.0841 21.1075 27.0841C21.1453 27.122 21.1831 27.1598 21.1831 27.1976C21.221 27.2355 21.221 27.2733 21.2588 27.3111C21.2966 27.3489 21.2966 27.3868 21.3345 27.4624C21.3723 27.5002 21.3723 27.5759 21.3723 27.6137C21.3723 27.6516 21.4101 27.6894 21.4101 27.7272C21.4101 27.765 21.4101 27.8029 21.4479 27.8407C21.4858 28.0677 21.4858 28.3324 21.4858 28.6351C21.4858 28.7107 21.4858 28.7864 21.4858 28.8242C21.4858 29.0512 21.4479 29.3159 21.4479 29.5807C21.4479 29.6942 21.4479 29.7699 21.4101 29.8834C21.4101 29.9968 21.3723 30.0725 21.3723 30.186C21.3723 30.2238 21.3723 30.2616 21.3723 30.2994C21.3723 30.3373 21.3723 30.3751 21.3723 30.4129C21.3345 30.6777 21.3345 30.9425 21.2966 31.2073C21.2966 31.3964 21.2588 31.5477 21.2588 31.7369C21.2588 32.0395 21.221 32.3421 21.221 32.6826C21.221 32.7582 21.221 32.8717 21.221 32.9852V33.023C21.221 33.0987 21.221 33.1743 21.221 33.25C21.221 33.2878 21.221 33.3634 21.221 33.4013C21.221 33.4769 21.221 33.5148 21.221 33.5904C21.221 33.6661 21.221 33.7417 21.221 33.8174C21.221 33.9308 21.221 34.0443 21.221 34.1578C21.221 34.2713 21.221 34.3848 21.221 34.4983C21.221 34.6117 21.221 34.763 21.221 34.8765C21.221 34.99 21.221 35.1413 21.221 35.2926C21.221 35.4439 21.221 35.5952 21.221 35.7465C21.221 36.2005 21.221 36.6922 21.221 37.184C21.221 37.3353 21.221 37.4488 21.221 37.6001C21.221 37.6379 21.221 37.6757 21.221 37.7514C21.221 38.1297 21.221 38.5079 21.2588 38.8862C21.2588 38.9997 21.2588 39.0753 21.2588 39.1888C21.2588 39.3023 21.2588 39.4158 21.2588 39.5293C21.2966 39.9075 21.2966 40.3236 21.3345 40.7019C21.3723 40.9667 21.3723 41.2693 21.4101 41.5341C21.4479 42.215 21.5236 42.858 21.5992 43.5389C21.6371 43.7659 21.6749 44.0307 21.6749 44.2576V44.2955C21.7127 44.5224 21.7506 44.7494 21.7884 44.9763C21.8262 45.0898 21.8262 45.2033 21.864 45.3168C21.9397 45.6572 21.9775 45.9977 22.0532 46.3381C22.0532 46.4516 22.091 46.5273 22.1288 46.6407C22.1288 46.6786 22.1288 46.7164 22.1667 46.7542C22.1667 46.792 22.1667 46.8299 22.2045 46.8677C22.2045 46.9434 22.2423 46.9812 22.2423 47.0568C22.9988 50.3478 24.3228 52.9579 26.6302 53.374C27.5381 53.5253 28.3703 53.4496 29.1268 53.2226L29.5808 53.0713L38.4323 49.856C38.924 49.4399 39.4158 48.9482 39.8319 48.3808C37.9405 47.8512 36.5788 46.4894 35.5574 44.5981C33.6282 40.9289 33.2122 35.217 33.6282 29.732C33.6282 29.6564 33.6282 29.5429 33.6661 29.4673C33.7796 28.0677 33.7796 26.9328 33.7417 26.0628C33.5904 23.8689 32.9474 23.1123 32.1152 22.9988C31.8882 22.8475 31.8504 22.8475 31.8125 22.8097Z" fill="url(#paint4_linear_326_729)"/>
<path d="M42.1772 48.2295L40.1345 48.986C40.3237 48.7969 40.5128 48.6078 40.7019 48.3808C41.2315 48.4565 41.7233 48.3808 42.1772 48.2295Z" fill="#1882FF"/>
<path fill-rule="evenodd" clip-rule="evenodd" d="M46.2246 22.9232L45.052 23.3393L39.9832 25.155L39.794 25.2307C38.8484 25.6468 38.2431 27.4625 37.7892 29.7321C37.7136 30.1482 37.6379 30.6021 37.5622 31.056C36.9948 34.5361 36.7301 38.6593 36.2761 41.0045C36.087 41.9502 35.7844 43.1607 35.3683 44.4468C35.3683 44.4846 35.3683 44.4846 35.3305 44.5225C34.6874 46.4895 33.7417 48.6834 32.4556 50.3478C32.3799 50.4235 32.3043 50.537 32.2665 50.6126C32.1908 50.7261 32.0773 50.8396 32.0017 50.9531C31.926 51.0287 31.8882 51.1044 31.8125 51.18C31.0938 51.9366 30.2995 52.5796 29.3916 52.9579L38.2431 49.7426C38.7349 49.3265 39.2266 48.8347 39.6427 48.2673C41.8367 45.4681 43.0472 41.2315 43.5389 38.8106C43.8415 37.184 44.1063 34.6118 44.4089 32.0395L45.0142 31.8126L45.4303 31.6613L46.0355 31.4343C45.6951 34.0822 45.4681 36.6923 45.1655 38.3945C44.6737 41.0045 43.2741 45.6951 40.7775 48.4565C40.5884 48.6834 40.3993 48.8726 40.2101 49.0617L42.2528 48.3052L42.8202 48.0782C47.3595 46.0734 49.9317 36.8057 50.3856 33.2878C50.5369 32.2287 50.5748 31.0182 50.6504 29.7699L49.856 30.0725L49.5534 30.186L49.1373 30.3373L48.5699 30.5643C48.5699 30.5265 48.6077 30.2617 48.6456 29.8456C48.6834 28.9377 48.7591 27.349 48.5699 25.9494C48.5321 25.6468 48.4564 25.382 48.4186 25.0794C48.343 24.7011 48.1916 24.3228 48.0403 24.0202C47.7377 23.4528 47.3216 23.0367 46.7542 22.961H46.7164C46.6786 22.961 46.6407 22.961 46.6029 22.961C46.3759 22.8854 46.3003 22.9232 46.2246 22.9232Z" fill="url(#paint5_linear_326_729)"/>
<path fill-rule="evenodd" clip-rule="evenodd" d="M52.9957 20.5401C52.8822 20.5401 52.8065 20.5401 52.693 20.5779L52.3904 20.6914L47.8134 22.3558C47.9268 22.3179 48.0781 22.3179 48.1916 22.3179C49.3264 22.4314 49.8182 23.7932 50.0452 25.3063C50.3478 27.3868 50.083 29.7699 50.083 29.9212L50.6126 29.732L55.9462 27.8029C55.9462 27.7272 55.9083 25.3819 55.3409 23.3771C54.9627 21.9397 54.2818 20.6914 53.1848 20.5779C53.1091 20.5401 53.0335 20.5401 52.9957 20.5401Z" fill="url(#paint6_linear_326_729)"/>
<path fill-rule="evenodd" clip-rule="evenodd" d="M48.2673 25.0037C48.1917 24.6254 48.0403 24.2471 47.889 23.9445L48.2673 25.0037Z" fill="url(#paint7_linear_326_729)"/>
<path fill-rule="evenodd" clip-rule="evenodd" d="M6.39276 5.86319C6.3171 5.86319 6.24145 5.86319 6.20362 5.86319C6.12797 5.86319 6.09014 5.86319 6.05231 5.90102C6.09014 5.90102 6.09014 5.90102 6.12797 5.90102C6.50624 5.97667 6.77103 6.12798 6.99799 6.35494C7.1493 6.50625 7.22495 6.65756 7.30061 6.84669C7.33843 6.92235 7.37626 7.03583 7.37626 7.14931C7.45191 7.4141 7.45192 7.75454 7.45192 8.09499C7.45192 8.17064 7.45192 8.24629 7.45192 8.32195V8.35978C7.45192 8.43543 7.41409 8.51108 7.41409 8.62456C7.37626 8.85153 7.33843 9.07849 7.30061 9.34328C7.26278 9.49459 7.22495 9.64589 7.22495 9.7972C7.18713 9.94851 7.1493 10.1376 7.11147 10.289C7.07364 10.4403 7.03582 10.5916 6.99799 10.7429C6.96016 10.9698 6.88451 11.2346 6.80885 11.4994C6.77103 11.6507 6.7332 11.8399 6.65755 12.029C6.54407 12.4073 6.46841 12.7855 6.35493 13.2016C6.16579 13.9204 5.93883 14.7147 5.71187 15.5469C5.40925 16.6817 5.14446 17.8922 4.84185 19.2161C4.31227 21.7884 3.85834 24.6632 3.70704 27.8785C3.40442 34.2335 5.40925 48.2295 11.4238 50.1965C11.8777 50.3478 12.2938 50.3856 12.672 50.31C12.4829 50.2721 12.2938 50.2343 12.1046 50.1965C6.09014 48.2673 4.08531 34.2335 4.38792 27.8785C4.53923 24.6632 4.99316 21.7506 5.52274 19.2161C5.78752 17.8922 6.09014 16.6817 6.39276 15.5469C6.61972 14.7147 6.80885 13.9204 7.03582 13.2016C7.1493 12.7855 7.26278 12.4073 7.33843 12.029C7.37626 11.8399 7.41409 11.6886 7.48974 11.4994C7.5654 11.2346 7.64105 11.0077 7.67888 10.7429C7.7167 10.5916 7.75453 10.4403 7.79236 10.289C7.83019 10.0998 7.86801 9.94851 7.90584 9.7972C7.94367 9.64589 7.98149 9.49459 7.98149 9.34328C8.01932 9.07849 8.05715 8.85153 8.09497 8.62456C8.09497 8.54891 8.1328 8.43543 8.1328 8.35978V8.32195C8.1328 8.24629 8.1328 8.17064 8.1328 8.09499C8.17063 7.71671 8.1328 7.4141 8.05715 7.14931C8.01932 7.03583 8.01932 6.96017 7.98149 6.84669C7.90584 6.65756 7.79236 6.50625 7.67888 6.35494C7.45191 6.16581 7.18713 6.0145 6.80885 5.90102C6.61972 5.86319 6.50624 5.86319 6.39276 5.86319Z" fill="url(#paint8_linear_326_729)"/>
<path fill-rule="evenodd" clip-rule="evenodd" d="M13.7312 2.79922C13.6556 2.83705 13.5799 2.83705 13.5042 2.87488L8.09498 4.84189C8.05715 4.91754 8.05715 5.03102 8.05715 5.10668C8.01932 5.25798 7.9815 5.40929 7.94367 5.5606C7.86801 5.78756 7.83019 6.05235 7.75453 6.31714C7.71671 6.46845 7.67888 6.65758 7.60323 6.84672C7.60323 6.88455 7.5654 6.9602 7.5654 6.99803C7.5654 7.03585 7.5654 7.03586 7.5654 7.07368C7.64105 7.33847 7.64105 7.67892 7.64105 8.01936C7.64105 8.09501 7.64105 8.17067 7.64105 8.24632V8.28415C7.64105 8.3598 7.60323 8.43546 7.60323 8.54894C7.5654 8.7759 7.52757 9.00286 7.48974 9.26765C7.45192 9.41896 7.41409 9.57027 7.41409 9.72158C7.37626 9.87288 7.33844 10.062 7.30061 10.2133C7.26278 10.3646 7.22495 10.5159 7.18713 10.6673C7.11147 10.8942 7.07365 11.159 6.99799 11.4238C6.96017 11.5751 6.92234 11.7642 6.84668 11.9534C6.7332 12.3316 6.65755 12.7099 6.54407 13.126C6.31711 13.8447 6.12797 14.6391 5.90101 15.4713C5.59839 16.6061 5.29578 17.8166 5.03099 19.1405C4.95533 19.4053 4.9175 19.7079 4.84185 19.9727C4.7662 20.8806 4.69054 21.7884 4.65272 22.7341C4.3501 29.089 6.35493 43.085 12.3694 45.052C12.5586 45.1277 12.7477 45.1655 12.9368 45.1655C13.3908 45.2412 13.8447 45.1655 14.223 45.0142L14.4121 44.9386C14.6391 44.8251 14.866 44.6738 15.0552 44.5225C15.1308 44.4846 15.2065 44.409 15.2443 44.3333C15.3199 44.2577 15.3956 44.182 15.4713 44.0685C12.2181 39.0754 11.1211 29.6943 11.3481 24.8524C11.4994 21.6371 11.9533 18.7244 12.4829 16.19C12.5207 15.963 12.5964 15.7361 12.6342 15.5091C13.5799 11.2725 14.7147 8.01936 15.0173 5.90104C15.2821 4.23665 15.0173 3.21532 13.769 2.91271C13.769 2.79922 13.7312 2.79922 13.7312 2.79922Z" fill="url(#paint9_linear_326_729)"/>
<path fill-rule="evenodd" clip-rule="evenodd" d="M38.508 27.2355L43.7281 27.5759C43.7281 27.5759 44.6738 33.6661 41.9502 43.0472L36.7301 37.9027C36.7301 37.9027 37.2975 30.8669 38.508 27.2355Z" fill="url(#paint10_linear_326_729)"/>
<path fill-rule="evenodd" clip-rule="evenodd" d="M21.2588 26.895C21.1453 26.895 21.0318 26.9329 20.9562 26.9707C20.994 26.9707 20.994 27.0085 20.994 27.0085C21.0318 27.0085 21.0318 27.0463 21.0697 27.0463C21.1075 27.0842 21.1453 27.122 21.1453 27.1598C21.1831 27.1977 21.1831 27.2355 21.221 27.2733C21.2588 27.3111 21.2588 27.349 21.2966 27.4246C21.3344 27.4624 21.3344 27.5381 21.3344 27.5759C21.3344 27.6137 21.3723 27.6516 21.3723 27.6894C21.3723 27.7272 21.3723 27.7651 21.4101 27.8029C21.4479 28.0298 21.4479 28.2946 21.4479 28.5973C21.4479 28.6729 21.4479 28.7486 21.4479 28.7864C21.4479 29.0133 21.4101 29.2781 21.4101 29.5429C21.4101 29.6564 21.4101 29.7321 21.3723 29.8455C21.3723 29.959 21.3344 30.0347 21.3344 30.1482C21.3344 30.186 21.3344 30.2238 21.3344 30.2616C21.3344 30.2995 21.3344 30.3373 21.3344 30.3751C21.2966 30.6399 21.2966 30.9047 21.2588 31.1695C21.2588 31.3586 21.221 31.5099 21.221 31.6991C21.1831 32.0017 21.1831 32.3043 21.1831 32.6447C21.1831 32.7204 21.1831 32.8339 21.1831 32.9474V32.9852C21.1831 33.0608 21.1831 33.1365 21.1831 33.2122C21.1831 33.25 21.1831 33.3256 21.1831 33.3635C21.1831 33.4391 21.1831 33.4769 21.1831 33.5526C21.1831 33.6282 21.1831 33.7039 21.1831 33.7796C21.1831 33.893 21.1831 34.0065 21.1831 34.12C21.1831 34.2335 21.1831 34.347 21.1831 34.4604C21.1831 34.5739 21.1831 34.7252 21.1831 34.8387C21.1831 34.9522 21.1831 35.1035 21.1831 35.2548C21.1831 35.4061 21.1831 35.5574 21.1831 35.7087C21.1831 36.1627 21.1831 36.6544 21.1831 37.1462C21.1831 37.2975 21.1831 37.411 21.1831 37.5623C21.1831 37.6001 21.1831 37.6379 21.1831 37.7136C21.1831 38.0918 21.1831 38.4701 21.221 38.8484C21.221 38.9619 21.221 39.0375 21.221 39.151C21.221 39.2645 21.221 39.378 21.221 39.4914C21.2588 39.8697 21.2588 40.2858 21.2966 40.6641C21.3344 40.9289 21.3344 41.2315 21.3344 41.4963C21.3723 42.1772 21.4479 42.8202 21.5236 43.5011C21.5614 43.7281 21.5992 43.955 21.5992 44.2198V44.2577C21.6371 44.4846 21.6749 44.7116 21.7127 44.9385C21.7505 45.052 21.7505 45.1655 21.7884 45.279C21.864 45.6194 21.9019 45.9599 21.9775 46.3003C21.9775 46.4138 22.0153 46.4894 22.0532 46.6029C22.0532 46.6408 22.0532 46.6786 22.091 46.6786C22.091 46.7164 22.091 46.7542 22.1288 46.7921C22.1288 46.8677 22.1666 46.9055 22.1666 46.9812C22.9232 50.2722 24.2471 52.92 26.5546 53.2983C26.9707 53.374 27.3868 53.4118 27.8029 53.374C27.5759 53.374 27.3868 53.3361 27.1598 53.2983C24.8524 52.8822 23.5284 50.2343 22.7719 46.9812C22.7719 46.9434 22.734 46.8677 22.734 46.7921C22.734 46.7542 22.734 46.7164 22.6962 46.6786C22.6962 46.6408 22.6962 46.6029 22.6584 46.6029C22.6206 46.5273 22.6206 46.4138 22.5827 46.3003C22.5071 45.9599 22.4693 45.6194 22.3936 45.279C22.3558 45.1655 22.3558 45.052 22.318 44.9385C22.2801 44.7116 22.2423 44.4846 22.2045 44.2577V44.2198C22.1666 43.9929 22.1288 43.7281 22.1288 43.5011C22.0532 42.8202 21.9775 42.1772 21.9397 41.4963C21.9019 41.2315 21.9019 40.9289 21.9019 40.6641C21.864 40.248 21.864 39.8697 21.8262 39.4914C21.8262 39.378 21.8262 39.2645 21.8262 39.151C21.8262 39.0375 21.8262 38.9619 21.8262 38.8484C21.8262 38.4701 21.7884 38.0918 21.7884 37.7136C21.7884 37.6757 21.7884 37.6379 21.7884 37.5623C21.7884 37.411 21.7884 37.2975 21.7884 37.1462C21.7884 36.6166 21.7884 36.1627 21.7884 35.7087C21.7884 35.5574 21.7884 35.4061 21.7884 35.2548C21.7884 35.1035 21.7884 34.99 21.7884 34.8387C21.7884 34.7252 21.7884 34.5739 21.7884 34.4604C21.7884 34.347 21.7884 34.2335 21.7884 34.12V33.7796C21.7884 33.7039 21.7884 33.6282 21.7884 33.5526C21.7884 33.4769 21.7884 33.4013 21.7884 33.3635C21.7884 33.3256 21.7884 33.25 21.7884 33.2122C21.7884 33.1365 21.7884 33.0608 21.7884 32.9852V32.9095C21.7884 32.7961 21.7884 32.6826 21.7884 32.6069C21.7884 32.3043 21.8262 31.9639 21.8262 31.6612C21.8262 31.4721 21.864 31.3208 21.864 31.1317C21.9019 30.8669 21.9019 30.6021 21.9397 30.3373C21.9397 30.2995 21.9397 30.2616 21.9397 30.2238C21.9397 30.186 21.9397 30.1482 21.9397 30.1103C21.9397 29.9969 21.9775 29.9212 21.9775 29.8077C21.9775 29.6942 22.0153 29.6186 22.0153 29.5051C22.0532 29.2403 22.0532 29.0134 22.0532 28.7486C22.0532 28.6729 22.0532 28.5973 22.0532 28.5594C22.0532 28.2568 22.0532 27.992 22.0153 27.7651C22.0153 27.7272 22.0153 27.6894 22.0153 27.6516C22.0153 27.6137 22.0153 27.5759 21.9775 27.5381C21.9775 27.5003 21.9397 27.4246 21.9397 27.3868C21.9397 27.349 21.9019 27.2733 21.864 27.2355C21.8262 27.1977 21.8262 27.1598 21.7884 27.122C21.7505 27.0842 21.7505 27.0463 21.7127 27.0085C21.6749 27.0085 21.6749 26.9707 21.6371 26.9707C21.5992 26.9329 21.5614 26.9329 21.5236 26.895C21.4858 26.8572 21.4479 26.8572 21.3723 26.8572C21.2966 26.895 21.2966 26.895 21.2588 26.895Z" fill="url(#paint11_linear_326_729)"/>
<path fill-rule="evenodd" clip-rule="evenodd" d="M46.2246 22.9232L45.052 23.3393L39.9832 25.155C40.0966 25.1172 40.2479 25.1172 40.3614 25.1172C41.4962 25.2306 41.988 26.5924 42.215 28.1055C42.5176 30.2238 42.2528 32.6826 42.2528 32.7204L44.3711 31.9639L44.9763 31.7369L45.3924 31.5856L45.9977 31.3586L48.4942 30.4508C48.4942 30.4129 48.5321 30.1482 48.5699 29.7321C48.6455 28.8242 48.6834 27.2355 48.4942 25.8359C48.2673 24.3228 47.7755 22.9988 46.6785 22.8475H46.6407C46.6029 22.8475 46.5651 22.8475 46.5272 22.8475C46.4138 22.8854 46.3003 22.9232 46.2246 22.9232Z" fill="url(#paint12_linear_326_729)"/>
<path d="M68.8452 46.7921L63.2468 27.8029H66.9917L70.5096 40.3615L74.0275 27.8029H76.7889L80.3447 40.3615L83.9004 27.8029H87.6453L82.0847 46.7921H79.0207L75.465 34.3848L71.8714 46.7921H68.8452ZM93.8489 47.019C92.4871 47.019 91.3145 46.7542 90.2932 46.1868C89.2718 45.6194 88.4775 44.8251 87.9101 43.8037C87.3427 42.7824 87.04 41.5719 87.04 40.1723C87.04 38.8106 87.3048 37.6001 87.8344 36.5031C88.364 35.4061 89.1205 34.5361 90.104 33.9309C91.0875 33.2878 92.2602 32.9852 93.6598 32.9852C95.0594 32.9852 96.1942 33.2878 97.1399 33.8552C98.0855 34.4226 98.7664 35.2548 99.2582 36.2761C99.7499 37.2975 99.9769 38.5079 99.9769 39.8697V40.891H90.8606C90.8606 41.5719 90.9741 42.1772 91.201 42.7067C91.428 43.2363 91.7684 43.6146 92.1845 43.8794C92.6006 44.1442 93.1302 44.2955 93.7354 44.2955C94.3785 44.2955 94.9837 44.1442 95.4755 43.8794C95.9672 43.6146 96.3077 43.1228 96.4968 42.5176H99.9391C99.7878 43.4633 99.4095 44.2955 98.8043 44.9764C98.199 45.6572 97.4425 46.1868 96.5725 46.5273C95.7024 46.8677 94.7568 47.0569 93.8489 47.019ZM90.8228 38.5836H96.3833C96.3833 38.054 96.2698 37.5244 96.0807 37.0705C95.8537 36.6166 95.5511 36.2761 95.1729 36.0113C94.7946 35.7466 94.265 35.6331 93.622 35.6331C93.0167 35.6331 92.525 35.7844 92.1089 36.0492C91.6928 36.314 91.3523 36.6922 91.1632 37.1462C90.9362 37.6001 90.8228 38.0918 90.8228 38.5836ZM106.294 47.019C105.273 47.019 104.516 46.9055 103.911 46.6786C103.306 46.4516 102.89 46.1112 102.625 45.7329C102.36 45.3546 102.171 44.9007 102.095 44.4468C102.02 43.955 101.982 43.5011 101.982 43.0094V27.2355H105.727V42.4798C105.727 42.9715 105.84 43.3876 106.029 43.6902C106.256 43.9929 106.634 44.182 107.24 44.2576L107.883 44.2955V46.6786C107.618 46.7542 107.353 46.8299 107.088 46.9055C106.824 46.9812 106.559 47.019 106.294 47.019ZM114.919 47.0569C113.67 47.0569 112.535 46.7921 111.552 46.2247C110.568 45.6572 109.774 44.8629 109.207 43.8037C108.639 42.7446 108.375 41.4963 108.375 40.0588C108.375 38.6592 108.639 37.411 109.207 36.3518C109.736 35.2926 110.493 34.4604 111.514 33.8552C112.498 33.25 113.632 32.9474 114.956 32.9474C116.091 32.9474 117.075 33.1743 117.907 33.6282C118.739 34.0822 119.382 34.7252 119.874 35.5196C120.366 36.314 120.63 37.184 120.706 38.1675H117.529C117.453 37.827 117.34 37.4488 117.15 37.1083C116.961 36.7679 116.696 36.4653 116.356 36.2383C116.016 36.0114 115.562 35.8979 115.032 35.8979C114.124 35.8979 113.405 36.2383 112.838 36.9192C112.271 37.6001 112.006 38.6592 112.006 40.0588C112.006 41.3828 112.271 42.4419 112.838 43.1985C113.368 43.9929 114.124 44.3711 115.108 44.3711C115.637 44.3711 116.053 44.2576 116.394 43.9929C116.734 43.7281 116.999 43.4255 117.188 43.085C117.377 42.7446 117.491 42.4041 117.566 42.1015H120.668C120.593 43.0472 120.328 43.8794 119.874 44.6359C119.382 45.3925 118.739 45.9977 117.907 46.4516C116.999 46.8299 116.016 47.0569 114.919 47.0569ZM128.536 47.0569C127.212 47.0569 126.04 46.7921 125.056 46.1868C124.073 45.6194 123.316 44.8251 122.787 43.7659C122.257 42.7067 121.992 41.4963 121.992 40.0588C121.992 38.6214 122.257 37.3731 122.787 36.314C123.316 35.2548 124.073 34.4226 125.056 33.8174C126.04 33.2121 127.212 32.9095 128.536 32.9095C129.86 32.9095 131.033 33.2121 132.016 33.7796C133 34.347 133.756 35.1792 134.286 36.2383C134.816 37.2975 135.08 38.5836 135.08 40.021C135.08 41.3828 134.816 42.5933 134.286 43.6146C133.756 44.6737 133 45.4681 132.054 46.0733C131.109 46.7542 129.898 47.0569 128.536 47.0569ZM128.536 44.182C129.217 44.182 129.747 43.9929 130.163 43.5768C130.579 43.1985 130.882 42.6689 131.033 42.0259C131.222 41.3828 131.298 40.6641 131.298 39.9075C131.298 39.1888 131.222 38.5079 131.033 37.8649C130.844 37.2218 130.579 36.6922 130.163 36.314C129.747 35.9357 129.179 35.7087 128.461 35.7087C127.78 35.7087 127.25 35.8979 126.834 36.2761C126.418 36.6544 126.115 37.1462 125.926 37.7892C125.737 38.4323 125.624 39.1132 125.624 39.9075C125.624 40.6263 125.699 41.3071 125.888 41.9502C126.078 42.5933 126.342 43.1607 126.758 43.5389C127.25 43.9929 127.818 44.2198 128.536 44.182ZM136.934 46.7921V33.2121H140.679V35.1413C141.095 34.5361 141.662 34.0443 142.343 33.5904C143.024 33.1743 143.932 32.9474 144.991 32.9474C145.445 32.9474 145.937 33.023 146.391 33.2121C146.882 33.4013 147.336 33.6282 147.752 33.9309C148.169 34.2335 148.509 34.6496 148.774 35.1413C149.228 34.4983 149.795 34.0065 150.514 33.5904C151.233 33.1743 152.027 32.9852 152.897 32.9852C153.427 32.9852 153.918 33.0608 154.448 33.25C154.977 33.4391 155.431 33.7039 155.885 34.0822C156.339 34.4604 156.68 34.9522 156.944 35.5953C157.209 36.2383 157.361 36.9949 157.361 37.9027V46.8677H153.54V38.3945C153.54 37.8649 153.427 37.411 153.237 37.0705C153.048 36.7301 152.746 36.5031 152.405 36.3518C152.065 36.2005 151.724 36.1248 151.346 36.1248C151.006 36.1248 150.665 36.2005 150.325 36.314C149.984 36.4653 149.682 36.6544 149.417 36.957C149.152 37.2596 149.039 37.6379 149.039 38.1297V46.8299H145.218V38.0162C145.218 37.6001 145.105 37.2596 144.878 36.957C144.651 36.6922 144.386 36.4653 144.045 36.314C143.705 36.1627 143.365 36.087 143.024 36.087C142.684 36.087 142.343 36.1627 141.965 36.314C141.587 36.4653 141.322 36.6922 141.095 36.9949C140.868 37.2975 140.754 37.6757 140.754 38.1297V46.8299L136.934 46.7921ZM165.909 47.019C164.548 47.019 163.375 46.7542 162.354 46.1868C161.332 45.6194 160.538 44.8251 159.971 43.8037C159.403 42.7824 159.101 41.5719 159.101 40.1723C159.101 38.8106 159.365 37.6001 159.895 36.5031C160.425 35.4061 161.181 34.5361 162.165 33.9309C163.148 33.2878 164.321 32.9852 165.72 32.9852C167.12 32.9852 168.255 33.2878 169.2 33.8552C170.146 34.4226 170.827 35.2548 171.319 36.2761C171.81 37.2975 172.037 38.5079 172.037 39.8697V40.891H162.921C162.921 41.5719 163.035 42.1772 163.262 42.7067C163.489 43.2363 163.829 43.6146 164.245 43.8794C164.661 44.1442 165.191 44.2955 165.796 44.2955C166.439 44.2955 167.044 44.1442 167.536 43.8794C168.028 43.6146 168.368 43.1228 168.557 42.5176H172C171.848 43.4633 171.47 44.2955 170.865 44.9764C170.26 45.6572 169.503 46.1868 168.633 46.5273C167.763 46.8677 166.855 47.0569 165.909 47.019ZM162.921 38.5836H168.482C168.482 38.054 168.368 37.5244 168.179 37.0705C167.952 36.6166 167.649 36.2761 167.271 36.0113C166.893 35.7466 166.363 35.6331 165.72 35.6331C165.115 35.6331 164.623 35.7844 164.207 36.0492C163.791 36.314 163.451 36.6922 163.262 37.1462C162.997 37.6001 162.921 38.0918 162.921 38.5836ZM187.395 47.019C185.617 47.019 184.104 46.6029 182.818 45.7707C181.532 44.9385 180.549 43.8037 179.83 42.2906C179.111 40.8154 178.771 39.0753 178.771 37.0705C178.771 35.0657 179.111 33.3635 179.83 31.926C180.511 30.4886 181.532 29.3916 182.818 28.6351C184.104 27.8785 185.617 27.4624 187.395 27.4624C188.833 27.4624 190.081 27.7272 191.216 28.3325C192.351 28.8999 193.221 29.6942 193.939 30.6777C194.62 31.6612 195.036 32.7961 195.15 34.0443H191.14C191.027 33.4013 190.8 32.7961 190.459 32.3043C190.157 31.7747 189.703 31.3964 189.173 31.0938C188.644 30.7912 188 30.6399 187.282 30.6399C186.412 30.6399 185.617 30.8669 185.012 31.283C184.369 31.6991 183.877 32.4178 183.537 33.3635C183.196 34.3091 183.007 35.5953 183.007 37.1462C183.007 39.4914 183.386 41.2315 184.142 42.2528C184.899 43.312 185.92 43.8416 187.282 43.8416C188.038 43.8416 188.644 43.6524 189.173 43.3498C189.703 43.0472 190.119 42.5554 190.459 42.0259C190.762 41.4584 190.989 40.8532 191.14 40.2102H195.15C195.036 41.118 194.809 41.988 194.507 42.7824C194.166 43.6146 193.712 44.3333 193.107 44.9764C192.502 45.6194 191.745 46.1112 190.8 46.4894C189.854 46.8677 188.719 47.0569 187.395 47.019ZM200.937 47.019C200.067 47.019 199.311 46.8677 198.592 46.5273C197.911 46.2247 197.344 45.7329 196.928 45.1277C196.512 44.5224 196.322 43.7659 196.322 42.8959C196.322 41.4206 196.89 40.2858 197.987 39.4914C199.084 38.6971 200.862 38.3188 203.245 38.281L204.947 38.2431V37.4488C204.947 36.8057 204.758 36.3518 204.417 36.0113C204.039 35.6709 203.472 35.5196 202.715 35.5196C202.148 35.5196 201.618 35.6709 201.126 35.8979C200.635 36.1627 200.256 36.5788 200.067 37.2218H196.89C196.928 36.2383 197.23 35.4439 197.76 34.8009C198.289 34.1578 198.97 33.7039 199.878 33.3635C200.748 33.0608 201.77 32.9095 202.904 32.9095C204.304 32.9095 205.401 33.0987 206.233 33.4391C207.065 33.7796 207.671 34.2713 208.049 34.9144C208.427 35.5574 208.616 36.314 208.616 37.2218V46.7542H205.401L205.098 44.409C204.644 45.3925 204.039 46.0733 203.358 46.4516C202.715 46.8677 201.883 47.0569 200.937 47.019ZM202.223 44.5224C202.564 44.5224 202.904 44.4468 203.245 44.3333C203.585 44.2198 203.888 44.0307 204.115 43.8037C204.38 43.5768 204.569 43.3498 204.758 43.085C204.909 42.8202 204.985 42.5176 204.985 42.2528V40.248L203.623 40.2858C202.98 40.2858 202.375 40.3615 201.845 40.5128C201.278 40.6641 200.862 40.891 200.521 41.2315C200.181 41.5719 200.029 41.988 200.029 42.5554C200.029 43.1985 200.256 43.6902 200.673 44.0307C201.051 44.3333 201.58 44.5224 202.223 44.5224ZM210.961 46.7921V33.2121H214.669V36.4274C214.895 35.7466 215.198 35.1413 215.614 34.6117C215.992 34.0822 216.484 33.6661 217.052 33.4013C217.619 33.0987 218.262 32.9474 218.981 32.9474C219.094 32.9474 219.208 32.9474 219.321 32.9474C219.435 32.9474 219.51 32.9852 219.586 33.023V36.6922C219.51 36.6544 219.397 36.6166 219.321 36.6166C219.208 36.6166 219.094 36.5788 219.019 36.5788C218.262 36.5031 217.619 36.5409 217.089 36.6544C216.56 36.7679 216.106 36.9192 215.803 37.184C215.463 37.4488 215.236 37.7514 215.085 38.1297C214.933 38.5079 214.858 38.924 214.858 39.378V46.8299L210.961 46.7921ZM226.13 47.019C224.314 47.019 222.877 46.376 221.893 45.1277C220.872 43.8794 220.38 42.1015 220.38 39.8697C220.38 38.4701 220.607 37.2218 220.986 36.2005C221.402 35.1413 222.007 34.347 222.801 33.7796C223.596 33.2121 224.579 32.9095 225.752 32.9095C226.244 32.9095 226.698 32.9474 227.114 33.0608C227.53 33.1743 227.908 33.3256 228.286 33.5148C228.627 33.7039 228.929 33.9309 229.194 34.1957C229.459 34.4604 229.686 34.7252 229.837 34.99V27.2355H233.696V46.7542H230.896L230.48 43.955C230.367 44.3333 230.178 44.7116 229.951 45.052C229.724 45.4303 229.459 45.7329 229.118 46.0355C228.778 46.3381 228.362 46.5651 227.87 46.7542C227.378 46.9434 226.811 47.019 226.13 47.019ZM227 44.2955C227.946 44.2955 228.702 43.955 229.156 43.2741C229.648 42.5933 229.875 41.4584 229.875 39.8697C229.875 38.924 229.762 38.1675 229.572 37.5623C229.345 36.957 229.043 36.5031 228.627 36.2005C228.211 35.8979 227.681 35.7466 227.038 35.7466C226.206 35.7466 225.525 36.0492 224.957 36.6922C224.39 37.3353 224.125 38.3945 224.125 39.8697C224.125 41.3828 224.39 42.5176 224.92 43.2363C225.411 43.9172 226.092 44.2955 227 44.2955Z" fill="#0C005B"/>
</g>
<defs>
<linearGradient id="paint0_linear_326_729" x1="8.18651" y1="-6.95748" x2="11.5685" y2="54.0107" gradientUnits="userSpaceOnUse">
<stop stop-color="#743DB9"/>
<stop offset="0.3412" stop-color="#2599B9"/>
<stop offset="0.702" stop-color="#5DE3C6"/>
<stop offset="0.9882" stop-color="#B4FFF2"/>
<stop offset="1" stop-color="#B4FFF2"/>
</linearGradient>
<linearGradient id="paint1_linear_326_729" x1="17.4403" y1="-7.52629" x2="20.7949" y2="53.6127" gradientUnits="userSpaceOnUse">
<stop stop-color="#743DB9"/>
<stop offset="0.3412" stop-color="#2599B9"/>
<stop offset="0.702" stop-color="#5DE3C6"/>
<stop offset="0.9882" stop-color="#B4FFF2"/>
<stop offset="1" stop-color="#B4FFF2"/>
</linearGradient>
<linearGradient id="paint2_linear_326_729" x1="6.23008" y1="5.08187" x2="2.05553" y2="18.1487" gradientUnits="userSpaceOnUse">
<stop stop-color="#0E339E"/>
<stop offset="1" stop-color="#3C64BA"/>
</linearGradient>
<linearGradient id="paint3_linear_326_729" x1="17.6112" y1="27.1212" x2="17.6112" y2="52.558" gradientUnits="userSpaceOnUse">
<stop stop-color="#FF85FF"/>
<stop offset="0.4902" stop-color="#9400B6"/>
<stop offset="1" stop-color="#5900A1"/>
</linearGradient>
<linearGradient id="paint4_linear_326_729" x1="28.4401" y1="17.8592" x2="31.624" y2="60.2094" gradientUnits="userSpaceOnUse">
<stop stop-color="#FF85FF"/>
<stop offset="0.4902" stop-color="#9400B6"/>
<stop offset="1" stop-color="#5900A1"/>
</linearGradient>
<linearGradient id="paint5_linear_326_729" x1="43.8313" y1="27.271" x2="35.8728" y2="59.5593" gradientUnits="userSpaceOnUse">
<stop stop-color="#662D80"/>
<stop offset="0.4902" stop-color="#C10080"/>
<stop offset="1" stop-color="#FF5781"/>
</linearGradient>
<linearGradient id="paint6_linear_326_729" x1="51.2217" y1="15.3355" x2="53.5686" y2="50.6791" gradientUnits="userSpaceOnUse">
<stop stop-color="#FFCD86"/>
<stop offset="0.5216" stop-color="#FF4E9D"/>
<stop offset="1" stop-color="#8B00B6"/>
</linearGradient>
<linearGradient id="paint7_linear_326_729" x1="48.0233" y1="23.3258" x2="48.3" y2="27.4935" gradientUnits="userSpaceOnUse">
<stop stop-color="#FF6600"/>
<stop offset="1" stop-color="#FFD600"/>
</linearGradient>
<linearGradient id="paint8_linear_326_729" x1="5.91574" y1="-0.986738" x2="8.34122" y2="43.5907" gradientUnits="userSpaceOnUse">
<stop stop-color="#743DB9"/>
<stop offset="0.3412" stop-color="#2599B9"/>
<stop offset="0.702" stop-color="#5DE3C6"/>
<stop offset="0.9882" stop-color="#B4FFF2"/>
<stop offset="1" stop-color="#B4FFF2"/>
</linearGradient>
<linearGradient id="paint9_linear_326_729" x1="9.22942" y1="3.04883" x2="11.5421" y2="45.1223" gradientUnits="userSpaceOnUse">
<stop stop-color="#743DB9"/>
<stop offset="0.3412" stop-color="#2599B9"/>
<stop offset="0.702" stop-color="#5DE3C6"/>
<stop offset="0.9882" stop-color="#B4FFF2"/>
<stop offset="1" stop-color="#B4FFF2"/>
</linearGradient>
<linearGradient id="paint10_linear_326_729" x1="41.3671" y1="29.5396" x2="38.3541" y2="44.5537" gradientUnits="userSpaceOnUse">
<stop stop-color="#662D80"/>
<stop offset="0.4902" stop-color="#C10080"/>
<stop offset="1" stop-color="#FF5781"/>
</linearGradient>
<linearGradient id="paint11_linear_326_729" x1="22.9503" y1="26.7724" x2="24.9504" y2="53.4885" gradientUnits="userSpaceOnUse">
<stop stop-color="#5900A1"/>
<stop offset="0.5098" stop-color="#9400B6"/>
<stop offset="1" stop-color="#FF85FF"/>
</linearGradient>
<linearGradient id="paint12_linear_326_729" x1="43.6049" y1="15.837" x2="45.9176" y2="51.1806" gradientUnits="userSpaceOnUse">
<stop stop-color="#FFCD86"/>
<stop offset="0.5216" stop-color="#FF4E9D"/>
<stop offset="1" stop-color="#8B00B6"/>
</linearGradient>
<clipPath id="clip0_326_729">
<rect width="233.696" height="53.2983" fill="white"/>
</clipPath>
</defs>
</svg>
